<?xml version="1.0" encoding="UTF-8"?>
<svg id="Layer_2" data-name="Layer 2" xmlns="http://www.w3.org/2000/svg" viewBox="0 0 26 26">
  <defs>
    <style>
      .cls-1 {
        fill: none;
        stroke: #3d4f82;
        stroke-linejoin: round;
        stroke-width: 1px;
      }
    </style>
  </defs>
  <g id="STAGE-1">
    <path class="cls-1" d="M22.37,14.56c0,.84-.68,1.52-1.52,1.52s-1.52-.68-1.52-1.52.68-1.52,1.52-1.52,1.52.68,1.52,1.52ZM25.5,19.25h-9.29v-9.37h9.29v9.37ZM8.31,25.5H.5v-6.25h7.81v6.25ZM16.12,25.5h-7.81v-6.25h7.81v6.25ZM16.21,9.87l4.62-6.25,4.68,6.25h-9.29ZM2.02,6.75L8.27.5l6.33,6.25H2.02ZM16.12,19.25v6.25h3.13v-1.56c0-.86.7-1.56,1.56-1.56s1.56.7,1.56,1.56v1.56h3.13v-6.25h-9.38ZM3.58,6.75v6.25h3.13v-1.56c0-.86.7-1.56,1.56-1.56s1.56.7,1.56,1.56v1.56h3.12v-6.25H3.58ZM12.96,13h-3.13v6.25h3.13v-6.25ZM6.71,13h-3.13v6.25h3.13v-6.25Z"/>
  </g>
</svg>