<?xml version="1.0" encoding="UTF-8"?>
<svg id="Layer_2" data-name="Layer 2" xmlns="http://www.w3.org/2000/svg" viewBox="0 0 22.76 26">
  <defs>
    <style>
      .cls-1 {
        fill: none;
        stroke: #c6386c;
        stroke-linecap: round;
        stroke-linejoin: round;
      }
    </style>
  </defs>
  <g id="STAGE-1">
    <path class="cls-1" d="M16.82,3c0-1.38-1.22-2.5-2.72-2.5s-2.72,1.12-2.72,2.5v2.5h2.72c1.5,0,2.72-1.12,2.72-2.5ZM11.38,3c0-.66-.29-1.3-.8-1.77-.51-.47-1.2-.73-1.92-.73-1.5,0-2.72,1.12-2.72,2.5s1.22,2.5,2.72,2.5h2.72v-2.5ZM9.57,8.83h3.63v-3.33h-3.63v3.33ZM13.19,25.36c-.59.09-1.2.14-1.81.14s-1.22-.05-1.81-.14V8.83h3.63v16.53ZM19.49,8.83c1.72,1.77,2.77,4.11,2.77,6.67,0,5.52-4.88,10-10.88,10S.5,21.02.5,15.5c0-2.56,1.05-4.9,2.77-6.67h16.22ZM13.19,8.83h7.25v-3.33h-7.25v3.33ZM9.57,25.36c-2.07-.32-3.94-1.18-5.44-2.41v-14.12h5.44v16.53ZM18.63,22.95c-1.5,1.23-3.37,2.09-5.44,2.41V8.83h5.44v14.12ZM2.31,8.83h7.25v-3.33H2.31v3.33Z"/>
  </g>
</svg>