<?xml version="1.0" encoding="UTF-8"?>
<svg id="Layer_2" data-name="Layer 2" xmlns="http://www.w3.org/2000/svg" viewBox="0 0 26 26">
  <defs>
    <style>
      .cls-1 {
        fill: none;
        stroke: #333232;
        stroke-linecap: round;
        stroke-linejoin: round;
      }
    </style>
  </defs>
  <g id="STAGE-1">
    <path class="cls-1" d="M15.6,3.61h-5.21c-.86,0-1.56-.7-1.56-1.56s.7-1.56,1.56-1.56h5.21c.86,0,1.56.7,1.56,1.56s-.7,1.56-1.56,1.56ZM9.35,12.95h7.29M9.35,9.84v9.44M16.65,9.84v9.44M15.6,9.84h-5.21v-2.07c0-.57.47-1.04,1.04-1.04h3.13c.58,0,1.04.46,1.04,1.04v2.07ZM19.77,19.28H6.23v-8.4c0-.57.47-1.04,1.04-1.04h11.46c.58,0,1.04.46,1.04,1.04v8.4ZM8.83,2.06h0c-3.74,0-6.77,3.02-6.77,6.74v10.48h21.87v-10.48c0-3.72-3.03-6.74-6.77-6.74M19.77,23.94c0,.86.7,1.56,1.56,1.56s1.56-.7,1.56-1.56-.7-1.56-1.56-1.56-1.56.7-1.56,1.56ZM6.23,23.94c0,.86-.7,1.56-1.56,1.56s-1.56-.7-1.56-1.56.7-1.56,1.56-1.56,1.56.7,1.56,1.56ZM25.5,22.39H.5v-3.11h25v3.11Z"/>
  </g>
</svg>