<?xml version="1.0" encoding="UTF-8"?>
<svg id="Layer_2" data-name="Layer 2" xmlns="http://www.w3.org/2000/svg" viewBox="0 0 67 80.22">
  <defs>
    <style>
      .cls-1 {
        fill: #f9be13;
      }

      .cls-2 {
        fill: none;
        stroke: #333232;
        stroke-linecap: round;
        stroke-linejoin: round;
        stroke-width: 2px;
      }
    </style>
  </defs>
  <g id="STAGE-1">
    <circle class="cls-1" cx="33.5" cy="22.5" r="22.5"/>
    <polygon class="cls-2" points="13.38 61.15 5.92 69.77 11.95 72.73 15.75 78.27 23.04 69.83 13.38 61.15"/>
    <polygon class="cls-2" points="53.62 61.15 61.08 69.77 55.05 72.73 51.25 78.27 43.96 69.83 53.62 61.15"/>
    <path class="cls-2" d="M46.75,22.18c-4.87,0-9.31,1.81-12.7,4.78-.32.28-.79.28-1.1,0-3.39-2.98-7.83-4.78-12.7-4.78C9.62,22.18,1,30.8,1,41.43c0,5.67,1.85,10.19,6.35,14.29,4.2,3.82,26.15,23.5,26.15,23.5,0,0,21.95-19.68,26.15-23.5,4.5-4.1,6.35-8.62,6.35-14.29,0-10.63-8.62-19.25-19.25-19.25Z"/>
    <path class="cls-2" d="M47.46,32.72l-13.96-4.74-13.96,4.74-1.28,13.51c-.62,6.52,2.85,12.75,8.72,15.65l6.53,3.24,6.53-3.24c5.87-2.91,9.34-9.13,8.72-15.65l-1.28-13.51Z"/>
    <polyline class="cls-2" points="26.15 61.35 26.15 44.58 33.5 37.01 40.85 44.58 40.85 61.35"/>
    <line class="cls-2" x1="27.07" y1="47.19" x2="39.93" y2="47.19"/>
    <line class="cls-2" x1="33.5" y1="47.35" x2="33.5" y2="64.45"/>
  </g>
</svg>