<?xml version="1.0" encoding="UTF-8"?>
<svg id="Layer_2" data-name="Layer 2" xmlns="http://www.w3.org/2000/svg" viewBox="0 0 100 100">
  <defs>
    <style>
      .cls-1 {
        fill: #8357a2;
      }

      .cls-2 {
        fill: none;
        stroke: #fff;
        stroke-linecap: round;
        stroke-linejoin: round;
        stroke-width: 2.47px;
      }
    </style>
  </defs>
  <g id="PANEL">
    <g id="EXTRA_wide">
      <g id="EXTRA_MODULE_wide" data-name="EXTRA MODULE_wide">
        <g id="BONUS">
          <g>
            <path class="cls-1" d="M50,100c27.57,0,50-22.43,50-50S77.57,0,50,0,0,22.43,0,50s22.43,50,50,50"/>
            <path class="cls-2" d="M61.44,28.9c0-2.91-2.56-5.28-5.72-5.28s-5.72,2.36-5.72,5.28v5.27h5.72c3.16,0,5.72-2.36,5.72-5.27ZM50,28.9c0-1.4-.6-2.74-1.67-3.73-1.07-.99-2.53-1.55-4.04-1.55-3.16,0-5.72,2.36-5.72,5.28s2.56,5.27,5.72,5.27h5.72v-5.27ZM67.04,41.21c3.62,3.73,5.83,8.66,5.83,14.07,0,11.65-10.25,21.1-22.87,21.1s-22.87-9.45-22.87-21.1c0-5.4,2.2-10.33,5.83-14.07h34.09ZM53.81,41.21h15.25v-7.03h-15.25v7.03ZM46.19,76.08c-4.35-.68-8.28-2.48-11.43-5.08v-29.79h11.43v34.87ZM65.25,71c-3.15,2.6-7.08,4.41-11.44,5.08v-34.87h11.44v29.79ZM30.94,41.21h15.25v-7.03h-15.25v7.03Z"/>
          </g>
        </g>
      </g>
    </g>
  </g>
</svg>