<?xml version="1.0" encoding="UTF-8"?>
<svg id="Layer_2" data-name="Layer 2" xmlns="http://www.w3.org/2000/svg" xmlns:xlink="http://www.w3.org/1999/xlink" viewBox="0 0 57 57">
  <defs>
    <style>
      .cls-1 {
        fill: none;
        stroke: #fff;
        stroke-linecap: round;
        stroke-linejoin: round;
        stroke-width: 1px;
      }

      .cls-2 {
        fill: #f16822;
        filter: url(#drop-shadow-1);
      }
    </style>
    <filter id="drop-shadow-1" x="0" y="0" width="57" height="57" filterUnits="userSpaceOnUse">
      <feOffset dx="0" dy="1.11"/>
      <feGaussianBlur result="blur" stdDeviation="1"/>
      <feFlood flood-color="#000" flood-opacity=".25"/>
      <feComposite in2="blur" operator="in"/>
      <feComposite in="SourceGraphic"/>
    </filter>
  </defs>
  <g id="STAGE-2">
    <g id="AGENDA_wide">
      <g id="EVENTS_wide">
        <g id="ORGANIZARE">
          <g id="restaurant_icon">
            <circle class="cls-2" cx="28.23" cy="27.81" r="25"/>
            <g>
              <path class="cls-1" d="M15.73,17.18v6.22c0,.86.7,1.56,1.56,1.56v11.93c0,.86.7,1.56,1.56,1.56s1.56-.7,1.56-1.56v-11.93c.86,0,1.56-.7,1.56-1.56v-6.22"/>
              <line class="cls-1" x1="18.84" y1="17.18" x2="18.84" y2="22.42"/>
              <circle class="cls-1" cx="29.01" cy="28.64" r="4.77"/>
              <path class="cls-1" d="M39.17,38.44h0c-.86,0-1.56-.7-1.56-1.56v-7.88h3.11v7.88c0,.86-.7,1.56-1.56,1.56Z"/>
              <path class="cls-1" d="M40.73,17.18h-1.04l-.82,1.43c-1.48,2.57-2.03,5.56-1.56,8.49l.31,1.91h3.11v-11.83Z"/>
              <path class="cls-1" d="M20.36,32.69c1.52,3.25,4.82,5.5,8.65,5.5s7.09-2.23,8.62-5.45"/>
              <path class="cls-1" d="M37.18,23.71c-1.67-2.77-4.71-4.62-8.17-4.62-2.74,0-5.21,1.16-6.95,3.01"/>
            </g>
          </g>
        </g>
      </g>
    </g>
  </g>
</svg>