<?xml version="1.0" encoding="UTF-8"?>
<svg id="Layer_2" data-name="Layer 2" xmlns="http://www.w3.org/2000/svg" viewBox="0 0 32.37 25">
  <defs>
    <style>
      .cls-1 {
        fill: #fff;
      }
    </style>
  </defs>
  <g id="CURS-MED">
    <path id="checked" class="cls-1" d="M31.81,3.08l-2.53-2.53c-.37-.37-.81-.55-1.31-.55s-.94.18-1.31.55l-14.89,14.89-6.05-6.05c-.37-.37-.81-.55-1.31-.55s-.94.18-1.31.55l-2.53,2.53c-.37.37-.55.81-.55,1.31s.18.94.55,1.31l9.9,9.9c.37.37.81.55,1.31.55s.94-.18,1.31-.55L31.81,5.71c.37-.37.55-.81.55-1.31s-.18-.94-.55-1.31Z"/>
  </g>
</svg>