<?xml version="1.0" encoding="UTF-8"?>
<svg id="Layer_2" data-name="Layer 2" xmlns="http://www.w3.org/2000/svg" viewBox="0 0 56.83 46.5">
  <defs>
    <style>
      .cls-1 {
        fill: none;
        stroke: #1f9bb8;
        stroke-linecap: round;
        stroke-linejoin: round;
        stroke-width: 1.5px;
      }
    </style>
  </defs>
  <g id="LANDING-MED">
    <g id="PAGE">
      <path id="path298" class="cls-1" d="M38.43,37.14h3.44"/>
      <path id="path302" class="cls-1" d="M40.15,20.78v11.19"/>
      <path id="path314" class="cls-1" d="M40.15,13.89c8.8,0,15.93,7.13,15.93,15.93,0,2.88-.77,5.59-2.11,7.92l.75,6.65-6.77-.68c-2.3,1.3-4.96,2.04-7.8,2.04-8.8,0-15.93-7.13-15.93-15.93s7.13-15.93,15.93-15.93Z"/>
      <path id="path318" class="cls-1" d="M18.4,25.72h-3.44"/>
      <path id="path322" class="cls-1" d="M16.68,20.55v-1.67c0-1.3.73-2.5,1.9-3.08,1.51-.74,2.52-2.35,2.4-4.17-.15-2.12-1.87-3.84-3.99-3.99-2.52-.17-4.61,1.82-4.61,4.29v.86"/>
      <path id="path326" class="cls-1" d="M32.58,15.81c-.45-8.39-7.4-15.06-15.9-15.06S.75,7.88.75,16.68c0,2.88.77,5.59,2.11,7.92l-.75,6.65,6.77-.68c2.3,1.3,4.96,2.04,7.8,2.04s5.32-.69,7.57-1.91"/>
    </g>
  </g>
</svg>