<?xml version="1.0" encoding="UTF-8"?>
<svg id="Layer_2" data-name="Layer 2" xmlns="http://www.w3.org/2000/svg" viewBox="0 0 46.5 46.5">
  <defs>
    <style>
      .cls-1 {
        fill: none;
        stroke: #1f9bb8;
        stroke-linecap: round;
        stroke-linejoin: round;
        stroke-width: 1.5px;
      }
    </style>
  </defs>
  <g id="LANDING-MED">
    <g id="PAGE">
      <line class="cls-1" x1="11.26" y1="9.12" x2="22.23" y2="9.12"/>
      <line class="cls-1" x1="11.26" y1="17.49" x2="21.72" y2="17.49"/>
      <path class="cls-1" d="M32.74,14.51V6.5c0-3.17-2.65-5.75-5.92-5.75H6.67C3.4.75.75,3.32.75,6.5v13.62c0,3.17,2.65,5.75,5.92,5.75h.9v3.35l7.42-3.35"/>
      <path class="cls-1" d="M25.84,26.53c0-.2.01-.39.04-.58.29-2.05,2.13-3.62,4.33-3.58,2.23.04,4.07,1.78,4.19,3.94.13,2.39-1.84,4.38-4.28,4.38v3.93"/>
      <line class="cls-1" x1="30.13" y1="38.61" x2="30.13" y2="38.61"/>
      <path class="cls-1" d="M45.75,28.76c-.89-7.61-7.54-13.52-15.62-13.52-8.68,0-15.72,6.83-15.72,15.26s7.04,15.26,15.72,15.26c3.51,0,6.75-1.12,9.37-3l5.9.44-1.65-4.9"/>
    </g>
  </g>
</svg>