<?xml version="1.0" encoding="UTF-8"?>
<svg id="Layer_2" data-name="Layer 2" xmlns="http://www.w3.org/2000/svg" viewBox="0 0 45.2 46.5">
  <defs>
    <style>
      .cls-1 {
        fill: none;
        stroke: #1f9bb8;
        stroke-linecap: round;
        stroke-linejoin: round;
        stroke-width: 1.5px;
      }
    </style>
  </defs>
  <g id="LANDING-MED">
    <g id="PAGE">
      <circle class="cls-1" cx="23.25" cy="23.25" r="11.2"/>
      <line class="cls-1" x1="22.03" y1="29.9" x2="24.66" y2="29.9"/>
      <circle class="cls-1" cx="23.25" cy="3.55" r="2.8"/>
      <circle class="cls-1" cx="3.55" cy="23.25" r="2.8"/>
      <circle class="cls-1" cx="41.82" cy="24.64" r="2.63"/>
      <circle class="cls-1" cx="23.34" cy="43.12" r="2.63"/>
      <path class="cls-1" d="M20.72,22.02c0-1.45,1.18-2.63,2.63-2.63s2.63,1.18,2.63,2.63c0,1.01-.57,1.89-1.41,2.33-.8.42-1.22,1.31-1.22,2.21"/>
      <path class="cls-1" d="M5.05,22.02c1.15-8.06,7.61-14.52,15.67-15.67"/>
      <path class="cls-1" d="M25.96,6.35c8.06,1.15,14.52,7.61,15.67,15.67"/>
      <path class="cls-1" d="M41.64,27.27c-1.15,8.06-7.61,14.52-15.67,15.67"/>
      <path class="cls-1" d="M20.46,42.75c-8.59-1.23-15.48-8.12-16.71-16.71"/>
    </g>
  </g>
</svg>