<?xml version="1.0" encoding="UTF-8"?>
<svg id="Layer_2" data-name="Layer 2" xmlns="http://www.w3.org/2000/svg" viewBox="0 0 46.5 46.5">
  <defs>
    <style>
      .cls-1 {
        fill: none;
        stroke: #1f9bb8;
        stroke-linecap: round;
        stroke-linejoin: round;
        stroke-width: 1.5px;
      }
    </style>
  </defs>
  <g id="LANDING-MED">
    <g id="PAGE">
      <path id="path3705" class="cls-1" d="M26.06,26.06v16.04c0,2.01-1.63,3.65-3.65,3.65H4.4c-2.01,0-3.65-1.63-3.65-3.65v-18.02c0-2.01,1.63-3.65,3.65-3.65h1.98v-8.3l8.44,8.3h5.63v1.98c0,2.01,1.63,3.65,3.65,3.65h1.98Z"/>
      <path id="path3709" class="cls-1" d="M45.75,4.4v18.02c0,2.01-1.63,3.65-3.65,3.65h-2.05v8.44l-8.3-8.44h-7.67c-2.01,0-3.65-1.63-3.65-3.65V4.4c0-2.01,1.63-3.65,3.65-3.65h18.02c2.01,0,3.65,1.63,3.65,3.65Z"/>
      <path id="path3713" class="cls-1" d="M30.28,9.19c0-1.61,1.36-2.91,2.99-2.81,1.4.09,2.54,1.23,2.63,2.63.06.98-.38,1.86-1.09,2.41-1.06.82-1.71,2.05-1.71,3.38h0"/>
      <path id="path3717" class="cls-1" d="M33.09,21.84c.73,0,1.43-.64,1.4-1.4-.03-.76-.62-1.4-1.4-1.4-.73,0-1.43.64-1.4,1.4.03.76.62,1.4,1.4,1.4"/>
      <path id="path3721" class="cls-1" d="M13.41,26.06v8.44"/>
      <path id="path3725" class="cls-1" d="M13.41,41.53c.73,0,1.43-.64,1.4-1.4-.03-.76-.62-1.4-1.4-1.4-.73,0-1.43.64-1.4,1.4.03.76.62,1.4,1.4,1.4"/>
    </g>
  </g>
</svg>