<?xml version="1.0" encoding="UTF-8"?>
<svg id="Layer_2" data-name="Layer 2" xmlns="http://www.w3.org/2000/svg" viewBox="0 0 46.5 46.5">
  <defs>
    <style>
      .cls-1 {
        fill: none;
        stroke: #1f9bb8;
        stroke-linecap: round;
        stroke-linejoin: round;
        stroke-width: 1.5px;
      }
    </style>
  </defs>
  <g id="LANDING-MED">
    <g id="PAGE">
      <path id="path2439" class="cls-1" d="M28.45,32.68l4.91-12.89c.1-.25.45-.25.55,0l4.86,12.89"/>
      <path id="path2443" class="cls-1" d="M29.97,29.47h7.28"/>
      <path id="path2447" class="cls-1" d="M.75,3.55v18.67c0,1.55,1.25,2.8,2.8,2.8h3.73v7.47l7.47-7.47h7.47c1.55,0,2.8-1.25,2.8-2.8V3.55c0-1.55-1.25-2.8-2.8-2.8H3.55C2,.75.75,2,.75,3.55Z"/>
      <path id="path2451" class="cls-1" d="M21.48,25.02v10.46c0,1.55,1.25,2.8,2.8,2.8h7.47l7.47,7.47v-7.47h3.73c1.55,0,2.8-1.25,2.8-2.8v-18.67c0-1.55-1.25-2.8-2.8-2.8h-17.93"/>
      <path id="path2455" class="cls-1" d="M15.27,15.19l4.18,4.18"/>
      <path id="path2459" class="cls-1" d="M19.4,12.89c0,3.61-2.93,6.54-6.54,6.54s-6.54-2.93-6.54-6.54,2.93-6.54,6.54-6.54,6.54,2.93,6.54,6.54Z"/>
    </g>
  </g>
</svg>