<?xml version="1.0" encoding="UTF-8"?>
<svg id="Layer_2" data-name="Layer 2" xmlns="http://www.w3.org/2000/svg" viewBox="0 0 46.5 46.5">
  <defs>
    <style>
      .cls-1 {
        fill: none;
        stroke: #1f9bb8;
        stroke-linecap: round;
        stroke-linejoin: round;
        stroke-width: 1.5px;
      }
    </style>
  </defs>
  <g id="LANDING-MED">
    <g id="PAGE">
      <path id="path1105" class="cls-1" d="M10.65,24.86l5.6,6.43"/>
      <path id="path1109" class="cls-1" d="M14.85,24.86c0,1.35-.48,2.54-1.23,3.41-.76.87-1.79,1.41-2.97,1.41-2.32,0-4.2-2.15-4.2-4.82v-3.21c0-2.67,1.88-4.82,4.2-4.82s4.2,2.15,4.2,4.82v3.21ZM23.25,20.04V3.96h-8.4c0-1.77-1.26-3.21-2.8-3.21s-2.8,1.45-2.8,3.21H.75v38.57h8.5c0-1.77,1.26-3.21,2.8-3.21s2.8,1.45,2.8,3.21h8.4v-16.07c1.54,0,2.8-1.45,2.8-3.21s-1.26-3.21-2.8-3.21Z"/>
      <path id="path1113" class="cls-1" d="M14.85,21.64v3.21c0,1.35-.48,2.54-1.23,3.41-.76.87-1.79,1.41-2.97,1.41-2.32,0-4.2-2.15-4.2-4.82v-3.21c0-2.67,1.88-4.82,4.2-4.82s4.2,2.15,4.2,4.82Z"/>
      <path id="path1121" class="cls-1" d="M37.25,3.96c0,1.77-1.26,3.21-2.8,3.21s-2.8-1.45-2.8-3.21h-8.4v16.07c1.54,0,2.8,1.45,2.8,3.21s-1.26,3.21-2.8,3.21v16.07h8.4c0,1.77,1.26,3.21,2.8,3.21s2.8-1.45,2.8-3.21h8.5V3.96h-8.5Z"/>
      <path id="path1129" class="cls-1" d="M32.21,26.46h7.42"/>
      <path id="path1133" class="cls-1" d="M30.99,29.68l3.74-12.86h2.24l3.74,12.86"/>
    </g>
  </g>
</svg>