<?xml version="1.0" encoding="UTF-8"?>
<svg id="Layer_2" data-name="Layer 2" xmlns="http://www.w3.org/2000/svg" viewBox="0 0 67 80.22">
  <defs>
    <style>
      .cls-1 {
        fill: #f9be13;
      }

      .cls-2 {
        fill: none;
        stroke: #333232;
        stroke-linecap: round;
        stroke-linejoin: round;
        stroke-width: 2px;
      }
    </style>
  </defs>
  <g id="STAGE-2">
    <g id="FORMATORI_wide">
      <g id="title">
        <g id="invitati_inspirational_icon">
          <circle class="cls-1" cx="33.5" cy="22.5" r="22.5"/>
          <g id="g14298">
            <g id="g14300">
              <g id="g14302">
                <g id="g14308">
                  <path id="path14310" class="cls-2" d="M27.99,19.73c0-3.04,2.47-5.51,5.51-5.51s5.51,2.47,5.51,5.51-2.47,5.51-5.51,5.51-5.51-2.47-5.51-5.51Z"/>
                </g>
                <g id="g14312">
                  <path id="path14314" class="cls-2" d="M27.99,65.59c0-3.04,2.47-5.51,5.51-5.51s5.51,2.47,5.51,5.51-2.47,5.51-5.51,5.51-5.51-2.47-5.51-5.51Z"/>
                </g>
                <g id="g14316">
                  <path id="path14318" class="cls-2" d="M6.51,65.59c0-3.04,2.47-5.51,5.51-5.51s5.51,2.47,5.51,5.51-2.47,5.51-5.51,5.51-5.51-2.47-5.51-5.51Z"/>
                </g>
                <g id="g14320">
                  <path id="path14322" class="cls-2" d="M49.75,65.59c0-3.04,2.47-5.51,5.51-5.51s5.51,2.47,5.51,5.51-2.47,5.51-5.51,5.51-5.51-2.47-5.51-5.51Z"/>
                </g>
                <g id="g14324">
                  <path id="path14326" class="cls-2" d="M23.31,34.6v-2.89c0-1.25.53-2.44,1.46-3.27,1.58-1.4,4.45-3.21,8.73-3.21s7.16,1.82,8.73,3.21c.93.82,1.46,2.02,1.46,3.27v2.89"/>
                </g>
                <g id="g14328">
                  <path id="path14330" class="cls-2" d="M22.62,79.22v-1.21c0-1.33.57-2.61,1.56-3.49,1.68-1.49,4.75-3.43,9.32-3.43s7.64,1.94,9.32,3.43c.99.88,1.56,2.15,1.56,3.49v1.21"/>
                </g>
                <g id="g14332">
                  <path id="path14334" class="cls-2" d="M44.38,79.22v-1.21c0-1.33.56-2.61,1.55-3.49,1.67-1.49,4.72-3.43,9.26-3.43s7.59,1.94,9.26,3.43c.99.88,1.55,2.15,1.55,3.49v1.21"/>
                </g>
                <g id="g14336">
                  <path id="path14338" class="cls-2" d="M1,79.22v-1.21c0-1.33.56-2.61,1.55-3.49,1.67-1.49,4.72-3.43,9.26-3.43s7.59,1.94,9.26,3.43c.99.88,1.55,2.15,1.55,3.49v1.21"/>
                </g>
                <g id="g14340">
                  <path id="path14342" class="cls-2" d="M16.15,35.29l6.36,17.9"/>
                </g>
                <g id="g14344">
                  <path id="path14346" class="cls-2" d="M54.98,35.29H12.02"/>
                </g>
                <g id="g14348">
                  <path id="path14350" class="cls-2" d="M44.49,53.19l6.36-17.9"/>
                </g>
              </g>
            </g>
          </g>
        </g>
      </g>
    </g>
  </g>
</svg>