<?xml version="1.0" encoding="UTF-8"?>
<svg id="Layer_2" data-name="Layer 2" xmlns="http://www.w3.org/2000/svg" viewBox="0 0 67 96">
  <defs>
    <style>
      .cls-1 {
        fill: #c6386c;
      }

      .cls-2 {
        fill: none;
        stroke: #fff;
        stroke-linecap: round;
        stroke-linejoin: round;
        stroke-width: 2px;
      }
    </style>
  </defs>
  <g id="STAGE-1">
    <circle class="cls-1" cx="33.5" cy="73.5" r="22.5"/>
    <path class="cls-2" d="M27.99,66v-11.02h11.02v11.02M27.99,43.97h11.02M39.01,32.95h5.51M22.48,32.95h5.51M1,66h65M55.53,54.98v11.02M11.47,43.97V12.02c0-6.08,4.93-11.02,11.02-11.02h22.03c6.08,0,11.02,4.93,11.02,11.02v20.93M11.47,66v-11.02M27.99,17.52h11.02M27.99,23.03v-11.02M39.01,12.02v11.02"/>
    <path class="cls-2" d="M51.53,46.79c2.14-1.79,5.6-1.79,7.74,0,2.14,1.79,2.14,4.69,0,6.48-2.14,1.79-5.6,1.79-7.74,0-2.14-1.79-2.14-4.69,0-6.48ZM7.73,46.79c2.14-1.79,5.6-1.79,7.74,0,2.14,1.79,2.14,4.69,0,6.48-2.14,1.79-5.6,1.79-7.74,0-2.14-1.79-2.14-4.69,0-6.48Z"/>
  </g>
</svg>