<?xml version="1.0" encoding="UTF-8"?>
<svg id="Layer_2" data-name="Layer 2" xmlns="http://www.w3.org/2000/svg" viewBox="0 0 54.59 88.13">
  <defs>
    <style>
      .cls-1 {
        fill: #f9be13;
      }

      .cls-2 {
        fill: none;
        stroke: #333232;
        stroke-linecap: round;
        stroke-linejoin: round;
        stroke-width: 2px;
      }
    </style>
  </defs>
  <g id="PANEL">
    <circle class="cls-1" cx="27.29" cy="65.63" r="22.5"/>
    <path class="cls-2" d="M19.2,52.33h16.18M35.39,57.91c0,4.47-3.62,8.09-8.09,8.09s-8.09-3.62-8.09-8.09v-14.3c-5.99-2.98-10.11-9.16-10.11-16.31,0-10.05,8.15-18.21,18.21-18.21s18.2,8.15,18.2,18.21c0,7.15-4.12,13.33-10.11,16.31v14.3ZM27.29,27.23v25.1M27.29,29.32c0,2.23,1.81,4.04,4.04,4.04s4.05-1.81,4.05-4.04v-2.1M27.29,29.32c0,2.23-1.81,4.04-4.05,4.04s-4.04-1.81-4.04-4.04v-2.1M27.29,1c14.52,0,26.29,11.77,26.29,26.3,0,11.7-7.64,21.61-18.2,25.03M19.2,52.33C8.64,48.91,1,39,1,27.3M2.23,19.1l1.55-3.74M7.27,10.13l2.86-2.86M15.36,3.78l3.74-1.55"/>
  </g>
</svg>