<?xml version="1.0" encoding="UTF-8"?>
<svg id="Layer_2" data-name="Layer 2" xmlns="http://www.w3.org/2000/svg" viewBox="0 0 60.35 28.04">
  <defs>
    <style>
      .cls-1 {
        fill: #fff;
      }

      .cls-2 {
        fill: #fafbfb;
      }
    </style>
  </defs>
  <g id="MENU_BAR_MAGNETIC_MED" data-name="MENU BAR + MAGNETIC MED">
    <g id="menu_wide">
      <g>
        <g>
          <path class="cls-1" d="M7.43,27.94l-.02-4.36-2.12,3.55h-1.03l-2.1-3.43v4.24H0v-8.23h1.92l2.89,4.75,2.82-4.75h1.92l.02,8.23h-2.14Z"/>
          <path class="cls-1" d="M18.13,26.15v1.8h-6.61v-8.23h6.61v1.8h-4.3v1.39h3.66v1.74h-3.66v1.5h4.3Z"/>
          <path class="cls-1" d="M19.85,19.72h3.89c.9,0,1.7.17,2.4.51.7.34,1.24.82,1.62,1.43.38.62.58,1.34.58,2.17s-.19,1.56-.58,2.17c-.38.62-.93,1.1-1.62,1.43-.7.34-1.5.51-2.4.51h-3.89v-8.23ZM23.65,26.09c.71,0,1.27-.2,1.7-.6.43-.4.64-.95.64-1.66s-.21-1.26-.64-1.66c-.43-.4-.99-.6-1.7-.6h-1.47v4.51h1.47Z"/>
          <path class="cls-1" d="M30.48,19.72h1.18v8.23h-1.18v-8.23Z"/>
          <path class="cls-1" d="M35.66,27.49c-.66-.36-1.18-.87-1.56-1.5s-.56-1.36-.56-2.16.19-1.52.56-2.16.9-1.14,1.56-1.5c.67-.36,1.41-.55,2.23-.55.64,0,1.23.11,1.76.32.53.22.99.54,1.36.96l-.76.74c-.62-.65-1.39-.98-2.32-.98-.61,0-1.16.14-1.66.41-.49.27-.88.65-1.16,1.13s-.42,1.02-.42,1.62.14,1.13.42,1.62.66.86,1.16,1.13c.49.27,1.05.41,1.66.41.92,0,1.69-.33,2.32-.99l.76.74c-.38.42-.83.74-1.37.96s-1.13.33-1.77.33c-.82,0-1.57-.18-2.23-.55Z"/>
          <path class="cls-1" d="M51.54,19.72h1.18v7.21h4.46v1.02h-5.63v-8.23Z"/>
          <path class="cls-1" d="M45.86,20.9l-3.1,7.05h-1.21l3.74-8.25h1.17l3.75,8.25h-1.24l-3.1-7.05Z"/>
        </g>
        <g>
          <path class="cls-1" d="M9.51,14.85l-.32-.94h-4.92l-.32.94c-.18.51-.66.86-1.2.86H0L4.7,3.23h4.06l4.7,12.48h-2.74c-.54,0-1.03-.34-1.2-.86ZM6.73,6.41l-1.59,4.7h3.16l-1.57-4.7Z"/>
          <path class="cls-1" d="M13.45,15.7V3.23h6.25c2.81,0,4.34,1.89,4.34,4.15s-1.53,4.13-4.34,4.13h-3.03v2.92c0,.7-.57,1.27-1.27,1.27h-1.95ZM20.77,7.38c0-.86-.69-1.35-1.55-1.35h-2.54v2.68h2.54c.86,0,1.55-.49,1.55-1.33Z"/>
          <path class="cls-1" d="M23.63,13.95l.94-1.38c.39-.57,1.16-.72,1.74-.35.82.51,1.84.87,3.03.87,1.09,0,1.76-.37,1.76-.99,0-1.65-7.05-.28-7.05-5.09,0-2.1,1.76-3.97,4.96-3.97,2,0,3.74.6,5.07,1.74l-1.04,1.43c-.38.52-1.08.66-1.64.36-.86-.46-1.83-.69-2.72-.69s-1.35.32-1.35.86c0,1.53,7.05.37,7.05,5.01,0,2.51-1.85,4.17-5.2,4.17-2.53,0-4.28-.8-5.54-1.98Z"/>
          <path class="cls-1" d="M42.66,14.85l-.32-.94h-4.92l-.32.94c-.18.51-.66.86-1.2.86h-2.74l4.7-12.48h4.06l4.7,12.48h-2.74c-.54,0-1.03-.34-1.2-.86ZM39.89,6.41l-1.59,4.7h3.16l-1.57-4.7Z"/>
          <path class="cls-1" d="M46.58,15.7V3.23h6.25c2.81,0,4.34,1.89,4.34,4.15s-1.53,4.13-4.34,4.13h-3.03v2.92c0,.7-.57,1.27-1.27,1.27h-1.95ZM53.9,7.38c0-.86-.69-1.35-1.55-1.35h-2.54v2.68h2.54c.86,0,1.55-.49,1.55-1.33Z"/>
        </g>
        <path class="cls-2" d="M57.48,1.54c0,.85.63,1.51,1.45,1.51.8.01,1.43-.67,1.43-1.53s-.63-1.52-1.44-1.52-1.44.67-1.44,1.54ZM59.62.87c-.07-.04-.28-.13-.55-.13-.54,0-.8.34-.8.8s.28.8.8.8c.23,0,.44-.06.57-.15l.07.22c-.2.13-.46.18-.7.18-.66,0-1.04-.46-1.04-1.03,0-.65.51-1.06,1.09-1.06.3,0,.55.09.63.15l-.07.22Z"/>
      </g>
    </g>
  </g>
</svg>