<?xml version="1.0" encoding="UTF-8"?>
<svg id="Layer_2" data-name="Layer 2" xmlns="http://www.w3.org/2000/svg" viewBox="0 0 20.6 26.38">
  <defs>
    <style>
      .cls-1 {
        fill: none;
        stroke: #1f9bb8;
        stroke-linecap: round;
        stroke-miterlimit: 13.33;
        stroke-width: .6px;
      }
    </style>
  </defs>
  <g id="MENU-MED">
    <line class="cls-1" x1=".3" y1="22.5" x2="20.3" y2="22.5"/>
    <circle class="cls-1" cx="4.35" cy="24.29" r="1.8"/>
    <circle class="cls-1" cx="16.25" cy="24.29" r="1.8"/>
    <line class="cls-1" x1="10.3" y1=".3" x2="10.3" y2="1.82"/>
    <path class="cls-1" d="M14.73,22.5H5.87v-8.61c0-.83.68-1.51,1.51-1.51h5.84c.83,0,1.51.68,1.51,1.51v8.61h0Z"/>
    <path class="cls-1" d="M12.66,12.38h-4.71v-1.84c0-1.3,1.06-2.36,2.36-2.36h0c1.3,0,2.36,1.06,2.36,2.36v1.84Z"/>
    <path class="cls-1" d="M19.34,17.03v-6.05c0-4.99-4.04-9.03-9.03-9.03h-.02C5.31,1.96,1.26,6,1.26,10.98v11.51h15.27"/>
  </g>
</svg>