<?xml version="1.0" encoding="UTF-8"?>
<svg id="Layer_2" data-name="Layer 2" xmlns="http://www.w3.org/2000/svg" viewBox="0 0 20.6 21.2">
  <defs>
    <style>
      .cls-1 {
        fill: none;
        stroke: #1f9bb8;
        stroke-linecap: round;
        stroke-miterlimit: 13.33;
        stroke-width: .6px;
      }
    </style>
  </defs>
  <g id="MENU-MED">
    <line class="cls-1" x1="4.97" y1="4.13" x2="9.84" y2="4.13"/>
    <line class="cls-1" x1="4.97" y1="7.97" x2="9.62" y2="7.97"/>
    <path class="cls-1" d="M14.52,6.6v-3.67c0-1.45-1.18-2.63-2.63-2.63H2.93C1.48.3.3,1.48.3,2.93v6.23c0,1.45,1.18,2.63,2.63,2.63h.4v1.53l3.3-1.53"/>
    <path class="cls-1" d="M11.45,12.1c0-.09,0-.18.02-.27.13-.94.95-1.66,1.92-1.64.99.02,1.81.81,1.86,1.8.06,1.1-.82,2-1.9,2v.88"/>
    <line class="cls-1" x1="13.36" y1="17.63" x2="13.36" y2="17.63"/>
    <path class="cls-1" d="M20.3,13.12c-.39-3.48-3.35-6.19-6.94-6.19-3.86,0-6.99,3.13-6.99,6.99s3.13,6.99,6.99,6.99c1.56,0,3-.51,4.16-1.37l2.62.2-.73-2.24"/>
  </g>
</svg>