<?xml version="1.0" encoding="UTF-8"?>
<svg id="Layer_2" data-name="Layer 2" xmlns="http://www.w3.org/2000/svg" viewBox="0 0 20.6 20.6">
  <defs>
    <style>
      .cls-1 {
        fill: none;
        stroke: #1f9bb8;
        stroke-linecap: round;
        stroke-miterlimit: 13.33;
        stroke-width: .6px;
      }
    </style>
  </defs>
  <g id="MENU-MED">
    <g id="menu_oferta_wide">
      <g id="menu_items">
        <g>
          <g>
            <g>
              <path class="cls-1" d="M19.19,10.44v-1.25C19.19,4.28,15.21.3,10.3.3h0C5.38.3,1.4,4.28,1.4,9.19v1.25"/>
              <path class="cls-1" d="M3.9,11.56v-2.37c0-3.53,2.87-6.4,6.4-6.4h0c3.53,0,6.4,2.87,6.4,6.4v2.37"/>
            </g>
            <path class="cls-1" d="M16.7,10.25v7.95h1.53c1.15,0,2.07-.93,2.07-2.07v-3.8c0-1.15-.93-2.07-2.07-2.07h-1.53Z"/>
            <rect class="cls-1" x="14.2" y="11.41" width="2.5" height="5.64"/>
            <path class="cls-1" d="M3.9,10.25v7.95h-1.53c-1.15,0-2.07-.93-2.07-2.07v-3.8c0-1.15.93-2.07,2.07-2.07h1.53Z"/>
            <rect class="cls-1" x="3.9" y="11.41" width="2.5" height="5.64"/>
          </g>
          <path class="cls-1" d="M16.7,17.04v.06c0,1.77-1.43,3.2-3.2,3.2h-3.2v-2.68"/>
          <path class="cls-1" d="M10.3,17.62h0c-.69,0-1.24-.56-1.24-1.24v-.59c0-.69.56-1.24,1.24-1.24h0c.69,0,1.24.56,1.24,1.24v.59c0,.69-.56,1.24-1.24,1.24Z"/>
        </g>
      </g>
    </g>
  </g>
</svg>