<?xml version="1.0" encoding="UTF-8"?>
<svg id="Layer_2" data-name="Layer 2" xmlns="http://www.w3.org/2000/svg" xmlns:xlink="http://www.w3.org/1999/xlink" viewBox="0 0 1600 425">
  <defs>
    <style>
      .cls-1 {
        fill: none;
      }

      .cls-2 {
        fill: url(#radial-gradient-7);
      }

      .cls-3 {
        fill: url(#radial-gradient-6);
      }

      .cls-4 {
        fill: url(#radial-gradient-5);
      }

      .cls-5 {
        fill: url(#radial-gradient-4);
      }

      .cls-6 {
        fill: url(#radial-gradient-9);
      }

      .cls-7 {
        fill: url(#radial-gradient-8);
      }

      .cls-8 {
        fill: url(#radial-gradient-3);
      }

      .cls-9 {
        fill: url(#radial-gradient-2);
      }

      .cls-10 {
        fill: url(#radial-gradient);
      }

      .cls-11 {
        fill: url(#radial-gradient-21);
        opacity: .3;
      }

      .cls-12 {
        fill: url(#radial-gradient-16);
      }

      .cls-13 {
        fill: url(#radial-gradient-12);
      }

      .cls-14 {
        fill: url(#radial-gradient-14);
      }

      .cls-15 {
        fill: url(#radial-gradient-13);
      }

      .cls-16 {
        fill: url(#radial-gradient-10);
      }

      .cls-17 {
        fill: url(#radial-gradient-17);
      }

      .cls-18 {
        fill: url(#radial-gradient-19);
      }

      .cls-19 {
        fill: url(#radial-gradient-11);
      }

      .cls-20 {
        fill: url(#radial-gradient-18);
      }

      .cls-21 {
        fill: url(#radial-gradient-15);
      }

      .cls-22 {
        fill: url(#radial-gradient-48);
      }

      .cls-23 {
        fill: url(#radial-gradient-47);
      }

      .cls-24 {
        fill: url(#radial-gradient-44);
      }

      .cls-25 {
        fill: url(#radial-gradient-43);
      }

      .cls-26 {
        fill: url(#radial-gradient-49);
      }

      .cls-27 {
        fill: url(#radial-gradient-42);
      }

      .cls-28 {
        fill: url(#radial-gradient-40);
      }

      .cls-29 {
        fill: url(#radial-gradient-41);
      }

      .cls-30 {
        fill: url(#radial-gradient-46);
      }

      .cls-31 {
        fill: url(#radial-gradient-45);
      }

      .cls-32 {
        fill: url(#radial-gradient-25);
      }

      .cls-33 {
        fill: url(#radial-gradient-35);
      }

      .cls-34 {
        fill: url(#radial-gradient-34);
      }

      .cls-35 {
        fill: url(#radial-gradient-22);
      }

      .cls-36 {
        fill: url(#radial-gradient-28);
      }

      .cls-37 {
        fill: url(#radial-gradient-23);
      }

      .cls-38 {
        fill: url(#radial-gradient-20);
      }

      .cls-39 {
        fill: url(#radial-gradient-24);
      }

      .cls-40 {
        fill: url(#radial-gradient-26);
      }

      .cls-41 {
        fill: url(#radial-gradient-29);
      }

      .cls-42 {
        fill: url(#radial-gradient-27);
      }

      .cls-43 {
        fill: url(#radial-gradient-39);
      }

      .cls-44 {
        fill: url(#radial-gradient-38);
      }

      .cls-45 {
        fill: url(#radial-gradient-33);
      }

      .cls-46 {
        fill: url(#radial-gradient-32);
      }

      .cls-47 {
        fill: url(#radial-gradient-31);
      }

      .cls-48 {
        fill: url(#radial-gradient-30);
      }

      .cls-49 {
        fill: url(#radial-gradient-37);
      }

      .cls-50 {
        fill: url(#radial-gradient-36);
      }

      .cls-51 {
        opacity: .5;
      }

      .cls-52 {
        opacity: .12;
      }

      .cls-53 {
        clip-path: url(#clippath);
      }
    </style>
    <clipPath id="clippath">
      <rect class="cls-1" width="1600" height="425"/>
    </clipPath>
    <radialGradient id="radial-gradient" cx="797.56" cy="208.93" fx="797.56" fy="208.93" r="867.12" gradientTransform="translate(0 0)" gradientUnits="userSpaceOnUse">
      <stop offset="0" stop-color="#d3d3d3"/>
      <stop offset=".19" stop-color="#cecece"/>
      <stop offset=".4" stop-color="#c2c2c2"/>
      <stop offset=".6" stop-color="#adadad"/>
      <stop offset=".81" stop-color="#909090"/>
      <stop offset="1" stop-color="#6f6f6f"/>
    </radialGradient>
    <radialGradient id="radial-gradient-2" cx="797.55" cy="208.94" fx="797.55" fy="208.94" r="867.14" xlink:href="#radial-gradient"/>
    <radialGradient id="radial-gradient-3" cx="797.55" cy="208.94" fx="797.55" fy="208.94" r="867.13" xlink:href="#radial-gradient"/>
    <radialGradient id="radial-gradient-4" cx="797.56" cy="208.93" fx="797.56" fy="208.93" r="867.12" xlink:href="#radial-gradient"/>
    <radialGradient id="radial-gradient-5" cx="797.55" cy="208.94" fx="797.55" fy="208.94" r="867.13" xlink:href="#radial-gradient"/>
    <radialGradient id="radial-gradient-6" cx="797.56" cy="208.94" fx="797.56" fy="208.94" r="867.12" xlink:href="#radial-gradient"/>
    <radialGradient id="radial-gradient-7" cx="797.55" cy="208.94" fx="797.55" fy="208.94" r="867.15" xlink:href="#radial-gradient"/>
    <radialGradient id="radial-gradient-8" cx="797.55" cy="208.94" fx="797.55" fy="208.94" r="867.14" xlink:href="#radial-gradient"/>
    <radialGradient id="radial-gradient-9" cx="797.56" cy="208.94" fx="797.56" fy="208.94" r="867.12" xlink:href="#radial-gradient"/>
    <radialGradient id="radial-gradient-10" cx="797.55" cy="208.94" fx="797.55" fy="208.94" r="867.13" xlink:href="#radial-gradient"/>
    <radialGradient id="radial-gradient-11" cx="797.56" cy="208.94" fx="797.56" fy="208.94" r="867.14" xlink:href="#radial-gradient"/>
    <radialGradient id="radial-gradient-12" cx="797.56" cy="208.94" fx="797.56" fy="208.94" r="867.12" xlink:href="#radial-gradient"/>
    <radialGradient id="radial-gradient-13" cx="797.55" cy="208.94" fx="797.55" fy="208.94" r="867.13" xlink:href="#radial-gradient"/>
    <radialGradient id="radial-gradient-14" cx="797.55" cy="208.94" fx="797.55" fy="208.94" r="867.13" xlink:href="#radial-gradient"/>
    <radialGradient id="radial-gradient-15" cx="797.55" cy="208.94" fx="797.55" fy="208.94" r="867.12" xlink:href="#radial-gradient"/>
    <radialGradient id="radial-gradient-16" cx="797.55" cy="208.94" fx="797.55" fy="208.94" r="867.12" xlink:href="#radial-gradient"/>
    <radialGradient id="radial-gradient-17" cx="797.55" cy="208.94" fx="797.55" fy="208.94" r="867.13" xlink:href="#radial-gradient"/>
    <radialGradient id="radial-gradient-18" cx="797.56" cy="208.94" fx="797.56" fy="208.94" r="867.13" xlink:href="#radial-gradient"/>
    <radialGradient id="radial-gradient-19" cx="797.55" cy="208.94" fx="797.55" fy="208.94" r="867.11" xlink:href="#radial-gradient"/>
    <radialGradient id="radial-gradient-20" cx="797.56" cy="208.94" fx="797.56" fy="208.94" r="867.13" xlink:href="#radial-gradient"/>
    <radialGradient id="radial-gradient-21" cx="797.56" cy="208.94" fx="797.56" fy="208.94" r="973.38" xlink:href="#radial-gradient"/>
    <radialGradient id="radial-gradient-22" cx="797.55" cy="208.94" fx="797.55" fy="208.94" r="867.13" xlink:href="#radial-gradient"/>
    <radialGradient id="radial-gradient-23" cx="797.55" cy="208.94" fx="797.55" fy="208.94" r="867.13" xlink:href="#radial-gradient"/>
    <radialGradient id="radial-gradient-24" cx="797.55" cy="208.94" fx="797.55" fy="208.94" r="867.12" xlink:href="#radial-gradient"/>
    <radialGradient id="radial-gradient-25" cx="797.56" cy="208.94" fx="797.56" fy="208.94" r="867.12" xlink:href="#radial-gradient"/>
    <radialGradient id="radial-gradient-26" cx="797.55" cy="208.93" fx="797.55" fy="208.93" r="867.14" xlink:href="#radial-gradient"/>
    <radialGradient id="radial-gradient-27" cx="797.55" cy="208.94" fx="797.55" fy="208.94" r="867.13" xlink:href="#radial-gradient"/>
    <radialGradient id="radial-gradient-28" cx="797.55" cy="208.94" fx="797.55" fy="208.94" r="867.13" xlink:href="#radial-gradient"/>
    <radialGradient id="radial-gradient-29" cx="797.55" cy="208.94" fx="797.55" fy="208.94" r="867.14" xlink:href="#radial-gradient"/>
    <radialGradient id="radial-gradient-30" cx="797.56" cy="208.94" fx="797.56" fy="208.94" r="867.12" xlink:href="#radial-gradient"/>
    <radialGradient id="radial-gradient-31" cx="797.55" cy="208.94" fx="797.55" fy="208.94" r="867.13" xlink:href="#radial-gradient"/>
    <radialGradient id="radial-gradient-32" cx="797.55" cy="208.94" fx="797.55" fy="208.94" r="867.13" xlink:href="#radial-gradient"/>
    <radialGradient id="radial-gradient-33" cx="797.55" cy="208.94" fx="797.55" fy="208.94" r="867.13" xlink:href="#radial-gradient"/>
    <radialGradient id="radial-gradient-34" cx="797.56" cy="208.94" fx="797.56" fy="208.94" r="867.13" xlink:href="#radial-gradient"/>
    <radialGradient id="radial-gradient-35" cx="797.55" cy="208.94" fx="797.55" fy="208.94" r="867.13" xlink:href="#radial-gradient"/>
    <radialGradient id="radial-gradient-36" cx="797.55" cy="208.94" fx="797.55" fy="208.94" r="867.12" xlink:href="#radial-gradient"/>
    <radialGradient id="radial-gradient-37" cx="797.55" cy="208.94" fx="797.55" fy="208.94" r="867.13" xlink:href="#radial-gradient"/>
    <radialGradient id="radial-gradient-38" cx="797.56" cy="208.94" fx="797.56" fy="208.94" r="867.14" xlink:href="#radial-gradient"/>
    <radialGradient id="radial-gradient-39" cx="797.55" cy="208.95" fx="797.55" fy="208.95" r="867.13" xlink:href="#radial-gradient"/>
    <radialGradient id="radial-gradient-40" cx="797.55" cy="208.94" fx="797.55" fy="208.94" r="867.13" xlink:href="#radial-gradient"/>
    <radialGradient id="radial-gradient-41" cx="797.56" cy="208.94" fx="797.56" fy="208.94" r="867.13" xlink:href="#radial-gradient"/>
    <radialGradient id="radial-gradient-42" cx="797.57" cy="208.94" fx="797.57" fy="208.94" r="867.15" xlink:href="#radial-gradient"/>
    <radialGradient id="radial-gradient-43" cx="797.55" cy="208.94" fx="797.55" fy="208.94" r="867.12" xlink:href="#radial-gradient"/>
    <radialGradient id="radial-gradient-44" cx="797.55" cy="208.94" fx="797.55" fy="208.94" r="867.13" xlink:href="#radial-gradient"/>
    <radialGradient id="radial-gradient-45" cx="797.55" cy="208.94" fx="797.55" fy="208.94" r="867.13" xlink:href="#radial-gradient"/>
    <radialGradient id="radial-gradient-46" cx="797.56" cy="208.94" fx="797.56" fy="208.94" r="867.12" xlink:href="#radial-gradient"/>
    <radialGradient id="radial-gradient-47" cx="797.55" cy="208.94" fx="797.55" fy="208.94" r="867.13" xlink:href="#radial-gradient"/>
    <radialGradient id="radial-gradient-48" cx="797.55" cy="208.94" fx="797.55" fy="208.94" r="867.13" xlink:href="#radial-gradient"/>
    <radialGradient id="radial-gradient-49" cx="797.55" cy="208.94" fx="797.55" fy="208.94" r="867.13" xlink:href="#radial-gradient"/>
  </defs>
  <g id="LANDING-MED">
    <g id="BACKS">
      <g id="medical_back_wide" class="cls-51">
        <g class="cls-53">
          <g id="medical_back">
            <g>
              <g class="cls-52">
                <path class="cls-10" d="M1319.09,62.47c-.88,2.87.69,5.89,3.53,6.84l-4.93,28.69c-5.89-.63-11.6,2.97-13.41,8.85-2.06,6.69,1.68,13.77,8.36,15.83,6.67,2.06,13.75-1.68,15.81-8.37.47-1.55.63-3.12.51-4.64l13.81-1.92c.76,3.35,3.22,6.21,6.74,7.3,5.22,1.61,10.76-1.33,12.37-6.55,1.62-5.23-1.32-10.77-6.54-12.38-5.23-1.61-10.76,1.32-12.38,6.55-.35,1.15-.48,2.31-.41,3.45l-13.8,1.91c-.91-4.38-4.1-8.14-8.66-9.55-.26-.08-.51-.14-.77-.2l4.93-28.7c2.38.05,4.62-1.48,5.36-3.88.9-2.91-.73-5.99-3.63-6.89-2.9-.9-5.99.74-6.88,3.64Z"/>
                <path class="cls-9" d="M783.81,234.15c4.34,2.25,9.65.61,11.99-3.66l44.52,16.28c-2.73,9.28,1.38,19.48,10.28,24.11,10.1,5.25,22.55,1.31,27.79-8.81,5.25-10.11,1.31-22.57-8.8-27.81-2.34-1.22-4.82-1.92-7.29-2.19l.96-22.73c5.59-.23,10.89-3.36,13.65-8.68,4.11-7.91,1.03-17.66-6.89-21.77-7.9-4.11-17.64-1.02-21.74,6.89-4.11,7.92-1.03,17.66,6.88,21.78,1.75.9,3.58,1.44,5.41,1.67l-.96,22.71c-7.27.18-14.23,4.2-17.82,11.12-.2.39-.37.79-.54,1.19l-44.54-16.28c.78-3.82-1.01-7.85-4.65-9.74-4.39-2.28-9.8-.56-12.08,3.83-2.28,4.39-.57,9.81,3.82,12.1Z"/>
                <path class="cls-8" d="M1194.16,155.03c-5.07,1.8-7.76,7.33-6.08,12.42l-46.62,23.65c-5.41-9.19-16.72-13.56-27.14-9.86-11.83,4.19-18.02,17.2-13.84,29.05,4.19,11.85,17.18,18.04,29.02,13.85,2.74-.97,5.17-2.44,7.25-4.23l17.56,17.88c-4.01,4.68-5.49,11.31-3.28,17.55,3.28,9.27,13.45,14.12,22.7,10.84,9.27-3.28,14.11-13.45,10.83-22.73-3.28-9.27-13.44-14.12-22.7-10.84-2.04.73-3.85,1.8-5.42,3.1l-17.56-17.87c5.34-5.99,7.33-14.64,4.47-22.75-.16-.45-.36-.89-.55-1.33l46.64-23.66c2.48,3.51,7.08,5.09,11.34,3.59,5.14-1.83,7.83-7.48,6.01-12.63-1.82-5.15-7.47-7.84-12.61-6.02Z"/>
                <path class="cls-5" d="M1141.27,283.95c3.84,1.99,8.54.54,10.61-3.24l39.42,14.42c-1.61,5.48-.51,11.31,2.73,15.82l-5.36,4.42c-.79-.78-1.71-1.46-2.75-2-5.62-2.91-12.54-.72-15.45,4.9-2.92,5.62-.73,12.54,4.89,15.47,5.62,2.92,12.53.72,15.45-4.9,1.98-3.83,1.6-8.27-.62-11.63l5.36-4.42c1.37,1.45,2.99,2.72,4.86,3.69,5.19,2.7,11.08,2.64,16.01.38l4.73,8.77c-1.18.85-2.2,1.97-2.92,3.36-2.42,4.67-.6,10.43,4.07,12.85,4.67,2.43,10.42.6,12.84-4.07,2.42-4.67.6-10.43-4.06-12.85-2.52-1.31-5.37-1.37-7.83-.42l-4.73-8.77c2.66-1.68,4.95-4.05,6.5-7.04,2.07-4,2.52-8.4,1.59-12.47l18.61-5.53c1,2.41,2.8,4.5,5.3,5.79,5.62,2.92,12.54.73,15.46-4.89,2.92-5.62.72-12.54-4.9-15.47-5.61-2.92-12.52-.73-15.44,4.9-1.23,2.36-1.54,4.95-1.08,7.39l-18.63,5.53c-1.51-4.12-4.49-7.71-8.69-9.89-2.07-1.08-4.26-1.7-6.45-1.93l.86-20.12c4.94-.21,9.64-2.98,12.09-7.7,3.64-7.01.91-15.64-6.09-19.28-7.01-3.64-15.63-.91-19.27,6.1-3.63,7.01-.91,15.64,6.1,19.28,1.54.8,3.16,1.27,4.79,1.48l-.85,20.11c-6.44.16-12.6,3.72-15.77,9.85-.18.35-.33.7-.49,1.05l-39.44-14.42c.69-3.38-.91-6.95-4.12-8.62-3.89-2.02-8.68-.5-10.7,3.39-2.02,3.89-.5,8.69,3.39,10.71Z"/>
                <path class="cls-4" d="M1014.67,283.95c2.53,1.32,5.64.36,7-2.13l26,9.5c-1.06,3.62-.34,7.46,1.8,10.43l-3.53,2.91c-.52-.52-1.13-.96-1.81-1.32-3.7-1.92-8.26-.47-10.18,3.23-1.92,3.72-.48,8.28,3.22,10.2,3.7,1.92,8.26.48,10.19-3.23,1.31-2.52,1.05-5.45-.41-7.66l3.53-2.92c.91.96,1.97,1.79,3.21,2.43,3.42,1.78,7.3,1.74,10.55.25l3.13,5.78c-.78.56-1.45,1.3-1.93,2.21-1.6,3.08-.39,6.88,2.68,8.48,3.08,1.6,6.87.4,8.47-2.68,1.6-3.09.4-6.87-2.68-8.48-1.66-.87-3.54-.9-5.16-.28l-3.12-5.79c1.75-1.1,3.26-2.66,4.29-4.64,1.37-2.63,1.65-5.53,1.05-8.22l12.26-3.65c.66,1.59,1.86,2.96,3.5,3.82,3.7,1.92,8.26.47,10.18-3.23,1.93-3.71.48-8.27-3.22-10.19-3.71-1.93-8.26-.48-10.19,3.23-.81,1.56-1.02,3.27-.72,4.87l-12.27,3.65c-1-2.72-2.97-5.08-5.74-6.52-1.36-.71-2.81-1.13-4.25-1.29l.56-13.27c3.26-.13,6.36-1.96,7.97-5.07,2.4-4.62.6-10.32-4.01-12.72-4.62-2.4-10.3-.59-12.71,4.03-2.39,4.62-.59,10.31,4.03,12.71,1.01.52,2.08.85,3.16.98l-.56,13.26c-4.25.11-8.31,2.46-10.41,6.49-.12.23-.21.46-.31.7l-26-9.51c.45-2.23-.6-4.58-2.72-5.68-2.57-1.33-5.72-.34-7.06,2.24-1.33,2.56-.34,5.72,2.23,7.06Z"/>
                <path class="cls-3" d="M1376.44,200.81c-.03,1.04.04,2.09.24,3.16,1.53,8.02,9.25,13.31,17.28,11.78,2.67-.51,5.03-1.72,6.94-3.39l7.43,7.51c-1.94,2.32-2.9,5.44-2.3,8.64,1.07,5.68,6.54,9.41,12.21,8.33,5.67-1.08,9.39-6.55,8.32-12.22-1.08-5.67-6.54-9.4-12.21-8.33-1.8.34-3.36,1.15-4.68,2.24l-7.43-7.51c2.93-3.31,4.36-7.88,3.48-12.56-.48-2.5-1.55-4.73-3.05-6.58l14.04-12.99c2.23,1.99,5.29,2.98,8.45,2.38,5.39-1.02,8.94-6.23,7.91-11.63-1.02-5.4-6.22-8.94-11.62-7.92-5.39,1.03-8.93,6.23-7.91,11.62.3,1.57.99,2.96,1.89,4.15l-14.06,13.01c-3.32-3.17-8.07-4.75-12.93-3.83-6.3,1.2-10.9,6.24-11.83,12.25l-30.55-2.8c0-.47-.03-.93-.12-1.39-.86-4.57-5.27-7.57-9.83-6.7-4.57.86-7.56,5.27-6.69,9.84.86,4.57,5.26,7.56,9.82,6.69,3.45-.65,5.99-3.33,6.66-6.56l30.52,2.8Z"/>
                <path class="cls-2" d="M985.46,225.7c6.03,3.13,13.45.78,16.58-5.25.94-1.83,1.37-3.78,1.37-5.71l23.52-1.88c.76,5.71,4.19,10.98,9.69,13.83.89.47,1.81.82,2.73,1.13l-.62,2.3c-3.65-.57-7.42,1.15-9.2,4.61-2.25,4.34-.56,9.67,3.76,11.92,4.33,2.25,9.65.56,11.9-3.77,2.25-4.33.56-9.66-3.77-11.91-.28-.15-.58-.23-.87-.34l.62-2.3c5.93,1.29,12.12-.47,16.47-4.63l27.52,26.04c-.4.51-.75,1.05-1.06,1.64-2.65,5.1-.66,11.39,4.44,14.04,5.09,2.65,11.37.66,14.02-4.45,2.65-5.1.66-11.38-4.45-14.03-3.92-2.04-8.53-1.32-11.66,1.44l-27.52-26.05c.87-1.04,1.67-2.18,2.32-3.43,4.65-8.97,1.16-20.02-7.81-24.68-3.07-1.59-6.39-2.21-9.61-2l-1.46-12.91c3.76-.71,7.17-3.08,9.08-6.75,3.28-6.33.82-14.14-5.51-17.43-6.35-3.29-14.14-.82-17.43,5.52-3.28,6.35-.82,14.15,5.51,17.44,2.08,1.08,4.31,1.52,6.49,1.44l1.48,12.91c-5.46.92-10.45,4.29-13.2,9.6-1.48,2.86-2.13,5.93-2.05,8.95l-23.52,1.89c-.59-3.72-2.86-7.13-6.47-9-6.02-3.13-13.44-.78-16.57,5.25-3.13,6.03-.78,13.45,5.24,16.59Z"/>
                <path class="cls-7" d="M1318.61,136.66c-6.17-3.21-13.79-.79-17,5.4-3.2,6.18-.8,13.8,5.39,17.01,6.18,3.21,13.79.8,17-5.38,0-.02.02-.03.02-.05l8.92,3c-1.58,7.3,1.81,15.04,8.75,18.65,8.32,4.32,18.56,1.08,22.88-7.24,2.34-4.5,2.45-9.55.77-13.93l30.16-15.7c1.11,1.53,2.58,2.84,4.37,3.77,6.1,3.17,13.58.86,16.86-5.14l62.63,22.89c-2.56,8.71-.82,17.97,4.33,25.12l-8.51,7.03c-1.26-1.24-2.71-2.32-4.36-3.18-8.93-4.64-19.91-1.15-24.54,7.77-4.63,8.93-1.16,19.93,7.77,24.57.2.11.41.18.61.28l-10.6,30.21c-9.59-2.46-19.94,1.88-24.69,11.04-.83,1.59-1.41,3.24-1.81,4.91l-56.16-8.52c.24-6.37-3.1-12.6-9.12-15.74-8.31-4.32-18.56-1.07-22.88,7.25-4.32,8.33-1.08,18.58,7.24,22.9,1.09.56,2.21.99,3.34,1.3l-3.54,22.68c-5.03-.08-9.93,2.61-12.4,7.39-3.49,6.72-.87,15.01,5.85,18.5,6.72,3.49,15,.87,18.5-5.86,3.48-6.72.87-15.01-5.86-18.5-.76-.4-1.55-.71-2.35-.95l3.55-22.68c6.38.27,12.65-3.08,15.79-9.13.58-1.11,1.01-2.26,1.33-3.42l56.13,8.52c-.42,6.57,2.18,13.07,7.16,17.54l-5.38,7.14c-5.29-2.69-11.77-.62-14.5,4.66-2.75,5.31-.69,11.86,4.62,14.61,5.31,2.76,11.84.69,14.59-4.63,2.16-4.17,1.34-9.1-1.69-12.36l5.39-7.14c.48.3.98.61,1.5.88,5.68,2.95,12.03,3.13,17.6,1.06l20.41,43.01c-2.52,1.56-4.68,3.79-6.15,6.62-4.33,8.35-1.08,18.64,7.26,22.97,2.52,1.3,5.21,1.91,7.87,1.91l2.91,25.75c-3.3.89-6.22,3.09-7.91,6.36-3.21,6.18-.8,13.8,5.38,17.01,6.18,3.21,13.79.8,17-5.39,3.21-6.18.81-13.8-5.38-17.01-1.71-.89-3.52-1.33-5.33-1.4l-2.91-25.75c4.71-1.08,8.93-4.13,11.33-8.75,4.33-8.34,1.07-18.63-7.27-22.97-4.31-2.24-9.12-2.44-13.38-.97l-20.41-43c3.42-2.01,6.35-4.95,8.31-8.73,5.53-10.67,1.38-23.81-9.28-29.35-.35-.18-.71-.33-1.06-.49l10.6-30.22c7.94,1.9,16.44-1.74,20.36-9.31,3.16-6.1,2.55-13.13-.99-18.48l8.51-7.02c2.17,2.31,4.75,4.32,7.73,5.87,8.24,4.29,17.59,4.2,25.43.6l7.52,13.94c-1.89,1.34-3.5,3.14-4.63,5.33-3.07,5.91-1.85,12.9,2.52,17.46l-22.34,27.62c-.18-.11-.36-.23-.55-.33-6.17-3.21-13.79-.79-17,5.39-3.2,6.19-.8,13.81,5.38,17.02,4.22,2.2,9.13,1.76,12.83-.72l23.9,26.13c-.37.48-.71,1-1,1.56-2.73,5.26-.68,11.73,4.57,14.46,5.25,2.73,11.72.68,14.45-4.58,2.72-5.25.68-11.73-4.58-14.46-3.5-1.82-7.54-1.51-10.65.46l-23.9-26.12c.51-.64.98-1.35,1.37-2.11,2.5-4.82,1.58-10.52-1.89-14.31l22.34-27.62c.33.2.65.4.99.59,7.42,3.85,16.55.96,20.4-6.47,1.31-2.53,1.82-5.25,1.65-7.9l15.89-3c.93,2.47,2.72,4.62,5.24,5.93,5.41,2.81,12.08.7,14.9-4.72,2.8-5.41.69-12.09-4.72-14.9-5.41-2.81-12.08-.7-14.89,4.71-.87,1.68-1.27,3.49-1.25,5.26l-15.86,2.99c-1.17-3.66-3.74-6.88-7.42-8.79-4.01-2.09-8.52-2.19-12.43-.67l-7.52-13.94c4.24-2.66,7.86-6.42,10.33-11.19,3.29-6.34,4-13.34,2.53-19.8l29.55-8.78c1.58,3.82,4.47,7.14,8.43,9.2,8.92,4.64,19.91,1.15,24.54-7.77,4.63-8.93,1.15-19.92-7.77-24.57-8.92-4.63-19.9-1.15-24.54,7.78-1.94,3.76-2.45,7.88-1.72,11.74l-29.58,8.79c-2.41-6.54-7.14-12.25-13.8-15.71-3.3-1.71-6.77-2.7-10.25-3.08l1.35-31.96c7.86-.33,15.32-4.73,19.21-12.21,5.77-11.14,1.44-24.85-9.69-30.63-11.12-5.78-24.82-1.44-30.59,9.69-5.77,11.14-1.44,24.85,9.69,30.63,2.45,1.27,5.02,2.03,7.61,2.36l-1.35,31.95c-10.23.25-20.02,5.91-25.06,15.65-.29.55-.51,1.11-.76,1.67l-62.65-22.9c1.1-5.38-1.42-11.05-6.54-13.7-1.14-.59-2.33-.99-3.53-1.21l4-37.35c5,.28,9.95-1.54,13.61-5.02l27.52,26.04c-.39.5-.75,1.05-1.06,1.64-2.65,5.1-.66,11.39,4.43,14.04,5.1,2.65,11.38.65,14.03-4.45,2.64-5.1.66-11.39-4.44-14.03-3.92-2.04-8.53-1.32-11.66,1.43l-27.52-26.04c.89-1.04,1.67-2.18,2.32-3.43,4.66-8.97,1.16-20.02-7.79-24.68-3.07-1.59-6.38-2.2-9.59-2l-1.48-12.91c3.75-.72,7.16-3.08,9.06-6.74,3.29-6.34.82-14.14-5.52-17.44-6.34-3.29-14.14-.82-17.42,5.52-3.29,6.34-.82,14.14,5.51,17.44,2.07,1.08,4.31,1.53,6.49,1.44l1.49,12.91c-5.47.92-10.45,4.29-13.2,9.6-1.49,2.86-2.14,5.93-2.05,8.95l-23.52,1.89c-.59-3.72-2.86-7.13-6.47-9-6.03-3.12-13.44-.77-16.57,5.26-3.13,6.03-.78,13.46,5.25,16.59,6.02,3.13,13.44.78,16.57-5.25.95-1.83,1.38-3.78,1.38-5.7l23.52-1.89c.76,5.71,4.19,10.98,9.69,13.84,1.78.92,3.65,1.51,5.53,1.81l-4,37.37c-4.69-.15-9.28,2.33-11.59,6.78-1.65,3.19-1.8,6.74-.73,9.89l-30.15,15.7c-1.54-2.3-3.65-4.24-6.28-5.61-8.31-4.32-18.55-1.08-22.87,7.25-.11.22-.2.44-.3.66l-8.93-3.01c.93-5.28-1.61-10.78-6.62-13.38Z"/>
                <path class="cls-6" d="M883.2,230.69c3.6,1.87,7.93.73,10.23-2.49l27.92,15.29c-2.19,4.72-1.66,10.06,1.06,14.15l-20.67,15.8c-.74-.81-1.6-1.51-2.62-2.05-4.79-2.49-10.69-.62-13.18,4.18-2.49,4.79-.62,10.7,4.17,13.19,4.79,2.49,10.69.62,13.17-4.18,1.65-3.17,1.36-6.8-.39-9.65l20.67-15.79c1.16,1.33,2.57,2.48,4.23,3.34,4.07,2.11,8.67,2.1,12.56.38l6.35,12.1c-1.09.75-2.03,1.73-2.68,2.97-2.09,4.03-.52,8.99,3.5,11.08,4.03,2.09,8.98.52,11.08-3.51,2.08-4.02.52-8.99-3.51-11.08-2.16-1.12-4.6-1.16-6.72-.34l-6.35-12.11c2.18-1.33,4.05-3.25,5.31-5.68,1.42-2.74,1.88-5.72,1.51-8.55l11.16-2.19c.53,1.5,1.59,2.82,3.11,3.6,3.18,1.65,7.1.41,8.75-2.77,1.66-3.18.41-7.11-2.77-8.76-3.18-1.65-7.1-.41-8.75,2.78-.55,1.06-.75,2.19-.7,3.3l-11.18,2.19c-1.01-3.81-3.55-7.21-7.32-9.16-.11-.05-.22-.1-.34-.15l9.8-24.02c5.3,1.69,11.21-.63,13.86-5.73,2.97-5.73.74-12.77-4.97-15.75-5.72-2.97-12.76-.73-15.72,4.99-2.97,5.72-.74,12.76,4.98,15.73.03.02.07.03.11.05l-9.8,24.01c-3.4-1.14-7.01-.96-10.18.37l-2.48-5.02c.84-.58,1.56-1.34,2.07-2.31,1.65-3.18.42-7.11-2.77-8.76-3.18-1.65-7.1-.41-8.75,2.78-1.66,3.18-.42,7.1,2.77,8.76,1.6.84,3.4.93,4.99.41l2.48,4.99c-1.96,1.14-3.67,2.74-4.95,4.77l-27.92-15.29c1.53-3.8-.01-8.2-3.72-10.13-3.94-2.05-8.79-.51-10.84,3.43-2.05,3.95-.51,8.8,3.43,10.85Z"/>
                <path class="cls-16" d="M1231.97,208.22c3.6,1.87,7.95.73,10.22-2.49l27.92,15.3c-2.2,4.72-1.65,10.05,1.06,14.14l-20.67,15.8c-.74-.8-1.59-1.52-2.62-2.05-4.79-2.49-10.68-.62-13.17,4.18-2.5,4.8-.62,10.7,4.17,13.18,4.79,2.49,10.69.63,13.18-4.17,1.64-3.17,1.35-6.81-.39-9.64l20.67-15.8c1.16,1.33,2.57,2.48,4.23,3.35,4.07,2.11,8.68,2.1,12.56.37l6.35,12.12c-1.09.74-2.03,1.72-2.68,2.96-2.09,4.03-.52,8.99,3.5,11.09,4.02,2.09,8.98.52,11.08-3.51,2.09-4.02.51-8.98-3.51-11.07-2.17-1.13-4.6-1.16-6.71-.35l-6.36-12.11c2.18-1.33,4.06-3.25,5.32-5.68,1.41-2.73,1.87-5.71,1.5-8.55l11.16-2.19c.53,1.5,1.59,2.81,3.11,3.59,3.18,1.66,7.1.42,8.75-2.76,1.66-3.19.42-7.11-2.77-8.76-3.18-1.65-7.1-.41-8.75,2.77-.55,1.05-.75,2.19-.7,3.3l-11.18,2.19c-1.01-3.82-3.54-7.21-7.32-9.17-.12-.06-.23-.1-.34-.16l9.8-24.02c5.31,1.69,11.21-.62,13.87-5.73,2.96-5.73.74-12.77-4.98-15.75-5.72-2.97-12.75-.74-15.72,4.99-2.97,5.72-.74,12.77,4.97,15.73.04.02.08.04.11.05l-9.79,24.01c-3.4-1.14-7.01-.96-10.18.37l-2.48-5.02c.84-.58,1.57-1.34,2.07-2.31,1.66-3.18.42-7.11-2.77-8.76-3.18-1.65-7.09-.41-8.74,2.77-1.65,3.19-.42,7.11,2.77,8.76,1.6.83,3.4.93,5,.41l2.48,4.99c-1.96,1.14-3.67,2.74-4.96,4.76l-27.92-15.29c1.53-3.81-.02-8.21-3.72-10.13-3.94-2.04-8.79-.5-10.84,3.44-2.05,3.94-.51,8.79,3.42,10.84Z"/>
                <path class="cls-19" d="M280.91,362.54c.88-2.87-.69-5.9-3.53-6.85l4.93-28.68c5.89.63,11.6-2.97,13.41-8.85,2.05-6.69-1.68-13.77-8.36-15.83-6.67-2.06-13.75,1.69-15.81,8.37-.47,1.55-.63,3.12-.52,4.64l-13.81,1.92c-.75-3.35-3.22-6.21-6.73-7.3-5.22-1.6-10.77,1.33-12.37,6.55-1.61,5.23,1.32,10.77,6.54,12.38,5.23,1.61,10.76-1.32,12.38-6.55.35-1.15.48-2.32.41-3.46l13.8-1.91c.91,4.38,4.1,8.14,8.66,9.55.26.08.51.14.77.2l-4.93,28.7c-2.38-.05-4.62,1.48-5.36,3.87-.9,2.91.73,5.99,3.63,6.89,2.9.9,5.99-.74,6.88-3.64Z"/>
                <path class="cls-13" d="M816.19,190.86c-4.34-2.25-9.65-.61-11.99,3.66l-44.51-16.28c2.73-9.27-1.38-19.48-10.28-24.11-10.1-5.25-22.54-1.31-27.79,8.81-5.25,10.11-1.31,22.57,8.8,27.81,2.34,1.22,4.81,1.92,7.29,2.19l-.95,22.73c-5.59.23-10.9,3.36-13.66,8.68-4.1,7.92-1.02,17.66,6.89,21.77,7.9,4.11,17.64,1.02,21.74-6.89,4.11-7.92,1.03-17.66-6.88-21.77-1.74-.9-3.58-1.44-5.41-1.68l.96-22.71c7.27-.18,14.23-4.2,17.82-11.12.2-.39.36-.79.54-1.19l44.54,16.28c-.78,3.83,1.01,7.86,4.65,9.74,4.39,2.28,9.8.57,12.08-3.83,2.28-4.39.57-9.81-3.82-12.09Z"/>
                <path class="cls-15" d="M405.84,269.98c5.07-1.8,7.76-7.33,6.08-12.42l46.62-23.65c5.41,9.19,16.72,13.56,27.15,9.86,11.83-4.19,18.02-17.2,13.84-29.05-4.19-11.84-17.18-18.04-29.02-13.85-2.74.97-5.17,2.44-7.25,4.23l-17.56-17.88c4.01-4.68,5.49-11.31,3.28-17.55-3.28-9.27-13.45-14.12-22.7-10.84-9.27,3.28-14.11,13.45-10.83,22.73,3.28,9.27,13.45,14.12,22.71,10.84,2.04-.73,3.85-1.79,5.43-3.1l17.55,17.87c-5.34,5.99-7.33,14.64-4.47,22.75.17.46.36.89.55,1.33l-46.64,23.66c-2.49-3.51-7.09-5.09-11.34-3.59-5.14,1.83-7.83,7.48-6.01,12.63,1.82,5.14,7.47,7.84,12.61,6.02Z"/>
                <path class="cls-14" d="M458.73,141.06c-3.83-1.99-8.54-.54-10.61,3.24l-39.42-14.41c1.61-5.48.51-11.31-2.73-15.82l5.36-4.42c.79.78,1.71,1.46,2.75,2,5.61,2.91,12.54.72,15.45-4.9,2.91-5.62.73-12.54-4.89-15.47-5.62-2.92-12.53-.72-15.45,4.9-1.98,3.83-1.6,8.27.62,11.63l-5.35,4.42c-1.37-1.45-2.99-2.72-4.86-3.69-5.19-2.7-11.07-2.64-16.01-.38l-4.73-8.77c1.19-.85,2.2-1.97,2.92-3.36,2.42-4.67.6-10.43-4.07-12.85-4.66-2.43-10.42-.6-12.84,4.07-2.42,4.67-.6,10.43,4.06,12.85,2.52,1.31,5.37,1.37,7.83.42l4.73,8.78c-2.67,1.67-4.95,4.04-6.51,7.04-2.07,4-2.52,8.4-1.59,12.47l-18.61,5.53c-1-2.41-2.81-4.5-5.3-5.79-5.62-2.92-12.53-.73-15.45,4.89-2.92,5.62-.72,12.55,4.9,15.47,5.61,2.92,12.53.73,15.44-4.9,1.23-2.36,1.54-4.96,1.08-7.39l18.63-5.53c1.52,4.12,4.49,7.71,8.69,9.89,2.07,1.08,4.26,1.7,6.45,1.93l-.85,20.12c-4.95.22-9.65,2.98-12.09,7.7-3.64,7.01-.91,15.64,6.09,19.28,7.01,3.63,15.63.91,19.27-6.1,3.64-7.01.91-15.64-6.1-19.28-1.54-.81-3.16-1.28-4.79-1.49l.85-20.11c6.44-.16,12.6-3.72,15.77-9.85.18-.35.33-.7.49-1.05l39.44,14.42c-.69,3.38.9,6.95,4.12,8.62,3.89,2.02,8.69.5,10.7-3.39,2.02-3.89.5-8.69-3.39-10.71Z"/>
                <path class="cls-21" d="M585.33,141.06c-2.53-1.32-5.64-.36-7,2.13l-26-9.5c1.06-3.61.34-7.46-1.8-10.43l3.53-2.91c.52.52,1.13.96,1.81,1.32,3.71,1.93,8.26.48,10.19-3.22,1.92-3.71.48-8.27-3.22-10.2-3.7-1.92-8.26-.48-10.19,3.23-1.32,2.52-1.06,5.45.41,7.66l-3.53,2.92c-.9-.96-1.97-1.79-3.21-2.43-3.42-1.78-7.3-1.74-10.55-.25l-3.13-5.78c.79-.56,1.45-1.3,1.93-2.21,1.6-3.08.39-6.88-2.68-8.48-3.08-1.6-6.87-.4-8.47,2.68-1.6,3.08-.4,6.87,2.68,8.48,1.66.86,3.54.9,5.16.27l3.12,5.78c-1.75,1.1-3.26,2.66-4.29,4.65-1.36,2.63-1.65,5.53-1.05,8.22l-12.27,3.65c-.66-1.59-1.86-2.96-3.5-3.82-3.7-1.92-8.26-.47-10.18,3.23-1.93,3.71-.48,8.27,3.22,10.19,3.71,1.93,8.27.48,10.19-3.23.81-1.56,1.02-3.27.72-4.87l12.27-3.65c1,2.71,2.97,5.08,5.74,6.52,1.37.71,2.81,1.12,4.25,1.28l-.56,13.27c-3.26.13-6.36,1.96-7.97,5.07-2.4,4.62-.6,10.32,4.02,12.72,4.62,2.4,10.3.6,12.7-4.03,2.39-4.62.6-10.31-4.02-12.71-1.02-.52-2.09-.84-3.16-.98l.56-13.26c4.25-.11,8.31-2.45,10.4-6.49.12-.23.22-.46.31-.7l26.01,9.51c-.45,2.23.6,4.58,2.72,5.69,2.56,1.33,5.72.33,7.06-2.24,1.33-2.56.33-5.72-2.23-7.06Z"/>
                <path class="cls-12" d="M223.56,224.2c.03-1.04-.04-2.09-.25-3.15-1.53-8.03-9.25-13.31-17.28-11.78-2.66.51-5.03,1.72-6.94,3.39l-7.43-7.51c1.94-2.32,2.91-5.44,2.3-8.64-1.07-5.68-6.54-9.4-12.21-8.33-5.67,1.08-9.4,6.55-8.32,12.22,1.08,5.67,6.54,9.4,12.21,8.33,1.8-.34,3.36-1.15,4.68-2.24l7.43,7.51c-2.93,3.31-4.36,7.89-3.48,12.56.48,2.5,1.55,4.72,3.05,6.58l-14.04,12.99c-2.23-1.99-5.29-2.98-8.45-2.38-5.39,1.02-8.94,6.23-7.91,11.63,1.03,5.4,6.22,8.94,11.61,7.92,5.39-1.02,8.93-6.23,7.91-11.62-.3-1.58-.98-2.96-1.89-4.15l14.06-13.01c3.32,3.17,8.07,4.75,12.92,3.83,6.31-1.2,10.9-6.24,11.84-12.25l30.55,2.79c0,.47.03.93.12,1.39.86,4.57,5.27,7.57,9.83,6.7,4.56-.86,7.56-5.27,6.69-9.84-.86-4.57-5.26-7.56-9.82-6.7-3.45.66-6,3.33-6.66,6.57l-30.52-2.8Z"/>
                <path class="cls-17" d="M614.54,199.31c-6.03-3.14-13.45-.79-16.58,5.25-.94,1.83-1.38,3.78-1.37,5.71l-23.52,1.88c-.76-5.71-4.19-10.97-9.69-13.83-.89-.47-1.81-.82-2.73-1.13l.62-2.3c3.65.58,7.41-1.15,9.2-4.61,2.25-4.33.56-9.67-3.76-11.91-4.33-2.25-9.65-.56-11.9,3.77-2.25,4.33-.56,9.66,3.76,11.91.28.15.57.23.86.34l-.62,2.3c-5.93-1.29-12.12.47-16.47,4.63l-27.52-26.05c.4-.51.75-1.05,1.06-1.63,2.65-5.1.66-11.39-4.45-14.04-5.09-2.65-11.37-.66-14.02,4.44-2.65,5.1-.66,11.38,4.44,14.04,3.92,2.04,8.53,1.32,11.66-1.44l27.52,26.05c-.88,1.04-1.67,2.18-2.32,3.43-4.65,8.97-1.15,20.01,7.8,24.67,3.07,1.59,6.39,2.21,9.61,2l1.46,12.9c-3.76.71-7.17,3.08-9.08,6.75-3.29,6.33-.82,14.14,5.51,17.43,6.34,3.29,14.14.82,17.43-5.52,3.29-6.35.82-14.16-5.51-17.44-2.08-1.08-4.31-1.52-6.49-1.43l-1.49-12.91c5.46-.92,10.45-4.29,13.2-9.6,1.48-2.86,2.13-5.93,2.05-8.95l23.52-1.89c.59,3.72,2.86,7.13,6.46,9,6.02,3.13,13.44.78,16.57-5.25,3.13-6.03.78-13.45-5.24-16.58Z"/>
                <path class="cls-20" d="M281.39,288.35c6.18,3.21,13.79.8,17-5.39,3.21-6.18.8-13.8-5.38-17.01-6.18-3.21-13.79-.8-17,5.38,0,.02-.01.03-.02.05l-8.92-3c1.58-7.3-1.81-15.04-8.75-18.66-8.32-4.32-18.56-1.07-22.88,7.25-2.33,4.5-2.45,9.55-.77,13.93l-30.16,15.7c-1.11-1.53-2.58-2.84-4.37-3.77-6.1-3.17-13.58-.86-16.86,5.14l-62.63-22.89c2.56-8.71.82-17.97-4.32-25.12l8.51-7.03c1.26,1.24,2.71,2.32,4.36,3.17,8.92,4.64,19.91,1.15,24.54-7.77,4.63-8.93,1.16-19.93-7.77-24.57-.2-.11-.4-.18-.61-.28l10.6-30.21c9.59,2.46,19.94-1.88,24.69-11.04.83-1.59,1.41-3.24,1.81-4.92l56.15,8.52c-.24,6.37,3.1,12.61,9.12,15.74,8.31,4.32,18.56,1.07,22.88-7.25,4.32-8.33,1.08-18.58-7.24-22.9-1.09-.57-2.21-1-3.34-1.3l3.54-22.68c5.03.08,9.93-2.61,12.4-7.39,3.49-6.72.87-15.01-5.85-18.51-6.72-3.49-15-.87-18.49,5.86-3.49,6.73-.87,15.01,5.86,18.5.77.4,1.55.71,2.35.95l-3.55,22.68c-6.38-.27-12.65,3.08-15.79,9.13-.58,1.11-1.01,2.26-1.33,3.42l-56.13-8.52c.42-6.57-2.18-13.06-7.15-17.54l5.38-7.14c5.29,2.69,11.77.62,14.51-4.66,2.76-5.31.69-11.86-4.62-14.61-5.31-2.76-11.84-.69-14.59,4.62-2.17,4.17-1.34,9.1,1.69,12.36l-5.39,7.14c-.48-.31-.98-.61-1.49-.88-5.68-2.95-12.04-3.12-17.6-1.06l-20.42-43.01c2.52-1.56,4.68-3.79,6.15-6.62,4.33-8.35,1.08-18.64-7.26-22.97-2.52-1.3-5.21-1.91-7.87-1.91l-2.91-25.75c3.3-.89,6.22-3.09,7.91-6.36,3.21-6.18.8-13.8-5.38-17.01-6.18-3.21-13.79-.8-17,5.39-3.21,6.19-.8,13.8,5.38,17.01,1.71.89,3.52,1.33,5.33,1.4l2.91,25.75c-4.71,1.08-8.93,4.13-11.33,8.75-4.33,8.35-1.07,18.63,7.27,22.97,4.31,2.24,9.12,2.44,13.38.97l20.41,43.01c-3.42,2.01-6.35,4.95-8.31,8.73-5.53,10.67-1.38,23.81,9.28,29.35.35.18.71.33,1.06.49l-10.6,30.22c-7.94-1.9-16.44,1.74-20.36,9.31-3.16,6.1-2.55,13.13.99,18.48l-8.51,7.03c-2.17-2.31-4.75-4.32-7.72-5.86-8.24-4.29-17.59-4.2-25.43-.61l-7.52-13.94c1.88-1.34,3.5-3.14,4.63-5.33,3.07-5.91,1.84-12.9-2.52-17.45l22.35-27.62c.18.12.36.23.55.33,6.18,3.21,13.79.8,17-5.39,3.2-6.19.8-13.81-5.38-17.02-4.22-2.2-9.13-1.76-12.83.72l-23.9-26.13c.37-.49.7-.99,1-1.56,2.73-5.26.68-11.73-4.57-14.47-5.25-2.73-11.72-.68-14.45,4.58-2.72,5.25-.68,11.73,4.57,14.46,3.51,1.82,7.54,1.51,10.66-.46l23.9,26.12c-.51.64-.98,1.35-1.37,2.11-2.5,4.82-1.57,10.52,1.89,14.31l-22.34,27.62c-.32-.2-.65-.4-.99-.59-7.42-3.85-16.55-.96-20.4,6.47-1.31,2.53-1.82,5.25-1.65,7.9l-15.89,2.99c-.93-2.47-2.72-4.62-5.24-5.93-5.41-2.81-12.08-.7-14.9,4.72-2.81,5.41-.69,12.08,4.72,14.9,5.41,2.81,12.08.7,14.89-4.71.87-1.68,1.27-3.49,1.25-5.26l15.86-2.99c1.18,3.66,3.74,6.88,7.42,8.79,4.01,2.09,8.52,2.19,12.43.67l7.52,13.94c-4.25,2.66-7.87,6.42-10.34,11.18-3.3,6.35-4,13.34-2.54,19.8l-29.55,8.79c-1.59-3.82-4.47-7.14-8.43-9.2-8.92-4.63-19.91-1.15-24.54,7.77-4.63,8.93-1.16,19.92,7.77,24.57,8.92,4.63,19.9,1.15,24.54-7.78,1.95-3.76,2.45-7.87,1.73-11.74l29.58-8.79c2.41,6.54,7.14,12.25,13.8,15.71,3.3,1.71,6.77,2.7,10.25,3.08l-1.35,31.96c-7.86.33-15.32,4.73-19.2,12.21-5.77,11.14-1.44,24.85,9.69,30.63,11.12,5.78,24.82,1.44,30.59-9.69,5.78-11.14,1.44-24.85-9.68-30.63-2.45-1.27-5.02-2.03-7.61-2.36l1.35-31.95c10.23-.25,20.02-5.91,25.06-15.65.29-.55.52-1.11.76-1.67l62.65,22.9c-1.09,5.38,1.43,11.05,6.54,13.7,1.14.6,2.32,1,3.53,1.21l-4,37.35c-5-.28-9.95,1.53-13.61,5.02l-27.52-26.04c.39-.5.75-1.05,1.06-1.64,2.65-5.1.66-11.39-4.44-14.04-5.1-2.65-11.38-.65-14.03,4.45-2.64,5.1-.66,11.39,4.44,14.03,3.92,2.04,8.54,1.33,11.66-1.42l27.52,26.04c-.88,1.04-1.67,2.18-2.32,3.43-4.65,8.97-1.16,20.02,7.79,24.68,3.07,1.59,6.38,2.2,9.58,2l1.48,12.91c-3.75.72-7.16,3.08-9.06,6.74-3.29,6.35-.82,14.14,5.52,17.44,6.33,3.29,14.13.82,17.42-5.52,3.29-6.34.82-14.14-5.51-17.44-2.07-1.08-4.31-1.52-6.49-1.44l-1.49-12.91c5.47-.93,10.45-4.29,13.2-9.6,1.49-2.86,2.14-5.93,2.05-8.94l23.52-1.89c.59,3.72,2.86,7.13,6.46,9.01,6.03,3.12,13.45.78,16.57-5.26,3.13-6.03.78-13.45-5.25-16.59-6.02-3.13-13.45-.78-16.57,5.25-.95,1.83-1.38,3.78-1.38,5.71l-23.52,1.89c-.76-5.71-4.19-10.97-9.69-13.84-1.78-.92-3.65-1.52-5.53-1.81l4-37.37c4.7.15,9.28-2.33,11.59-6.78,1.65-3.18,1.8-6.74.73-9.89l30.15-15.69c1.54,2.29,3.65,4.24,6.28,5.61,8.31,4.32,18.55,1.07,22.87-7.25.11-.22.2-.44.3-.66l8.93,3.01c-.93,5.28,1.6,10.78,6.61,13.38Z"/>
                <path class="cls-18" d="M716.79,194.32c-3.6-1.87-7.93-.73-10.23,2.49l-27.91-15.29c2.19-4.73,1.65-10.07-1.06-14.15l20.67-15.8c.75.8,1.6,1.51,2.62,2.04,4.79,2.48,10.69.62,13.18-4.18,2.49-4.79.62-10.69-4.17-13.19-4.79-2.49-10.69-.62-13.17,4.18-1.65,3.17-1.35,6.8.39,9.64l-20.68,15.8c-1.16-1.33-2.57-2.48-4.23-3.34-4.06-2.11-8.67-2.1-12.56-.37l-6.35-12.11c1.09-.75,2.03-1.72,2.68-2.97,2.09-4.03.52-8.99-3.5-11.08-4.03-2.1-8.98-.52-11.08,3.51-2.08,4.03-.52,8.99,3.51,11.08,2.17,1.13,4.59,1.16,6.71.35l6.35,12.11c-2.18,1.33-4.05,3.25-5.31,5.68-1.42,2.73-1.88,5.71-1.51,8.55l-11.17,2.2c-.53-1.5-1.59-2.82-3.11-3.61-3.18-1.65-7.1-.41-8.75,2.77-1.66,3.19-.41,7.11,2.77,8.76,3.18,1.65,7.1.41,8.75-2.78.55-1.06.75-2.19.69-3.3l11.19-2.19c1.02,3.81,3.55,7.2,7.31,9.16.11.05.23.1.34.15l-9.8,24.02c-5.3-1.69-11.21.63-13.86,5.74-2.97,5.73-.74,12.77,4.97,15.75,5.72,2.97,12.76.74,15.73-4.99,2.97-5.72.74-12.77-4.98-15.74-.03-.02-.07-.03-.11-.05l9.8-24.01c3.41,1.14,7.01.96,10.18-.36l2.48,5.02c-.84.58-1.57,1.34-2.07,2.31-1.65,3.18-.41,7.11,2.77,8.76,3.18,1.65,7.1.41,8.75-2.78,1.65-3.18.42-7.1-2.77-8.76-1.6-.84-3.4-.93-4.99-.41l-2.48-5c1.96-1.14,3.67-2.74,4.95-4.77l27.91,15.29c-1.53,3.8.02,8.2,3.72,10.13,3.94,2.05,8.79.51,10.84-3.44,2.05-3.95.51-8.8-3.43-10.85Z"/>
                <path class="cls-38" d="M368.03,216.79c-3.6-1.87-7.94-.73-10.22,2.49l-27.92-15.3c2.2-4.72,1.65-10.05-1.06-14.14l20.67-15.8c.74.8,1.6,1.52,2.63,2.05,4.79,2.49,10.68.62,13.17-4.18,2.5-4.79.62-10.7-4.17-13.18-4.79-2.49-10.69-.62-13.17,4.17-1.65,3.18-1.35,6.81.4,9.64l-20.67,15.8c-1.16-1.33-2.58-2.48-4.23-3.35-4.07-2.11-8.68-2.1-12.56-.37l-6.35-12.11c1.09-.74,2.03-1.72,2.67-2.96,2.09-4.04.53-8.99-3.5-11.09-4.02-2.09-8.98-.52-11.07,3.51-2.09,4.02-.51,8.99,3.51,11.07,2.17,1.13,4.6,1.16,6.71.35l6.36,12.11c-2.19,1.33-4.06,3.25-5.33,5.68-1.41,2.73-1.87,5.71-1.5,8.55l-11.16,2.2c-.53-1.5-1.59-2.81-3.11-3.6-3.18-1.66-7.1-.42-8.75,2.76-1.66,3.19-.41,7.11,2.77,8.76,3.18,1.65,7.09.41,8.75-2.77.55-1.05.75-2.19.7-3.3l11.18-2.2c1.01,3.81,3.54,7.2,7.32,9.17.11.06.22.1.34.16l-9.8,24.02c-5.31-1.69-11.21.62-13.87,5.73-2.96,5.73-.74,12.77,4.98,15.75,5.71,2.97,12.75.74,15.72-4.99,2.97-5.72.74-12.77-4.97-15.73-.04-.02-.08-.04-.11-.05l9.79-24.01c3.4,1.14,7.01.96,10.18-.37l2.49,5.02c-.84.58-1.57,1.34-2.07,2.31-1.65,3.19-.42,7.11,2.77,8.76,3.19,1.65,7.1.41,8.75-2.77,1.65-3.19.41-7.11-2.77-8.76-1.6-.83-3.4-.93-5-.41l-2.48-4.99c1.96-1.14,3.67-2.74,4.96-4.77l27.92,15.29c-1.53,3.81.02,8.2,3.72,10.13,3.93,2.05,8.79.51,10.84-3.44,2.05-3.94.51-8.79-3.43-10.84Z"/>
              </g>
              <path class="cls-11" d="M84.93,174.79c.76,7.07,6.81,12.52,14.06,12.39,1.97-.03,3.83-.5,5.52-1.27l33.08,57.37c-2.88,2.04-4.73,5.42-4.65,9.21.09,6.08,5.13,10.95,11.22,10.83,5.65-.09,10.18-4.47,10.72-9.95l70.81.03c.54,4.56,4.43,8.09,9.14,8.01,1.12-.03,2.19-.29,3.18-.67l1.88-1.01c2.37-1.68,3.91-4.47,3.85-7.57-.05-2.91-1.49-5.45-3.66-7.08l34.73-60.13c1.57.71,3.35,1.11,5.2,1.07,6.31-.11,11.45-5.02,12.03-11.17l66.17.03c.77,5.45,5.44,9.61,11.08,9.51,1.82-.04,3.5-.55,5.02-1.37l34.08,59.14c-3.25,2.27-5.34,6.08-5.26,10.33.07,4.19,2.23,7.85,5.48,10.02l-34.72,60.17c-1.24-.58-2.6-.93-4.05-.91-4.6.09-8.32,3.61-8.81,8.1l.02,2.14c.59,4.53,4.46,8.01,9.13,7.93,1.29-.03,2.52-.34,3.63-.86l1.81-1.15c2.14-1.69,3.52-4.31,3.47-7.25-.05-2.79-1.39-5.24-3.4-6.87l34.8-60.28c1.57.7,3.33,1.09,5.18,1.05,6.31-.11,11.43-4.99,12.03-11.14l67.07.02c.77,5.43,5.44,9.58,11.06,9.47,6.08-.1,10.94-5.14,10.83-11.24-.06-3.36-1.65-6.31-4.07-8.29l34.3-59.44c1.35.55,2.84.85,4.39.83,5.62-.11,10.14-4.43,10.73-9.88l70.69.03c.47,4.66,4.4,8.29,9.17,8.19,1.3-.02,2.52-.33,3.64-.85l34.39,59.68c-3.3,2.27-5.46,6.11-5.38,10.41.07,4.26,2.31,7.97,5.62,10.14l-33.75,58.46c-1.44-.65-3.03-1.03-4.7-.99-6.09.11-10.94,5.15-10.83,11.24.11,6.09,5.15,10.96,11.23,10.84,1.55-.02,3.02-.37,4.33-.97l1.85-1.07c2.87-2.04,4.72-5.41,4.65-9.2-.06-3.63-1.92-6.81-4.68-8.77l33.79-58.55c1.55.65,3.24,1.02,5.02.98,6.26-.11,11.33-4.9,12.01-10.96l70.07.02c.71,4.4,4.53,7.73,9.08,7.65,1.07-.02,2.08-.26,3.03-.62l36.22,62.83c-2.47,1.67-4.08,4.5-4.03,7.7.06,3.12,1.7,5.85,4.12,7.43l1.94.93c.99.36,2.07.56,3.18.55,5-.1,9-4.25,8.9-9.26-.08-5-4.24-9.01-9.25-8.91-1.04.02-2.02.25-2.94.6l-36.24-62.84c2.44-1.68,4.03-4.5,3.98-7.68-.05-2.91-1.51-5.46-3.67-7.08l34.87-60.41c1.45.66,3.05,1.06,4.74,1.01,5.82-.11,10.46-4.73,10.77-10.46h68.35c.52,6.45,5.95,11.49,12.48,11.36,1.62-.03,3.14-.37,4.53-.97l34.38,59.63c-2.26,1.69-3.72,4.4-3.66,7.41.09,5.01,4.25,9.02,9.24,8.91,4.49-.07,8.13-3.43,8.78-7.74l72.51.02c.24,5.17,4.54,9.27,9.75,9.17,1.25-.02,2.45-.3,3.53-.75l35.62,61.8c-2.28,1.69-3.75,4.4-3.69,7.46.05,2.97,1.56,5.56,3.78,7.17l1.86,1.07c1.11.45,2.33.71,3.6.69,4.58-.09,8.27-3.58,8.81-8.02l71.36.02c.67,5.3,5.18,9.36,10.61,9.28,1.44-.04,2.81-.35,4.06-.91l34.03,59.03c-3.6,2.21-5.98,6.2-5.89,10.74.07,4.13,2.2,7.76,5.37,9.94l2.06,1.15c1.56.68,3.3,1.06,5.11,1.02,6.47-.14,11.7-5.27,12.06-11.65l-.06-2.14c-.72-6.21-6.08-11-12.47-10.87-1.51.02-2.95.34-4.28.86l-34.08-59.14c2.74-1.94,4.5-5.17,4.43-8.79-.05-3.42-1.77-6.41-4.34-8.29l33.74-58.45c1.52.63,3.18.97,4.92.93,6.36-.11,11.51-5.05,12.04-11.25l66.64.02c.83,6.1,6.12,10.78,12.43,10.67,1.76-.04,3.41-.43,4.92-1.14l34.09,59.16c-2.75,1.95-4.54,5.19-4.49,8.83.07,3.39,1.75,6.35,4.28,8.24l1.83,1.08c1.43.66,2.98,1.06,4.64,1.03,5.32-.1,9.61-4.16,10.23-9.31l71.28.02c.27,4.86,4.32,8.7,9.21,8.62,1.27-.02,2.46-.32,3.54-.8l1.81-1.13c2.2-1.69,3.61-4.35,3.56-7.33-.06-2.98-1.56-5.58-3.81-7.19l35.64-61.76c1.43.68,3.01,1.07,4.67,1.06,5.41-.11,9.76-4.29,10.26-9.56l-.02-2.13c-.59-5.36-5.13-9.5-10.62-9.4-1.36.02-2.62.31-3.8.8l-10.91-18.93-22.95-40.12c3.3-2.28,5.42-6.09,5.33-10.39-.06-4.06-2.11-7.6-5.18-9.81l33.11-56.86c1.59.7,3.35,1.1,5.19,1.07,6.39-.11,11.56-5.11,12.06-11.35l-.02-2.15c-.6-6.35-6-11.29-12.48-11.17-6.8.12-12.22,5.76-12.1,12.55.08,4.19,2.24,7.85,5.47,10.02l-33.06,56.81c-1.68-.81-3.54-1.24-5.53-1.21-6.3.12-11.43,4.97-12.03,11.09h-69.93c-.49-4.63-4.42-8.2-9.14-8.11-1.25.02-2.45.29-3.54.79l-1.81,1.11c-2.2,1.7-3.61,4.37-3.57,7.35.06,2.89,1.5,5.42,3.66,7.05l-34.52,59.8c-1.73-.86-3.67-1.33-5.72-1.3-6.56.12-11.82,5.38-12.08,11.86l-66.54-.02c-.55-6.4-5.97-11.38-12.49-11.27-1.59.04-3.09.37-4.48.94l-34.01-59.02c2.33-1.8,3.83-4.6,3.77-7.77-.06-3.29-1.76-6.17-4.33-7.85l33.41-57.9c1.96,1,4.18,1.56,6.53,1.51,7.48-.14,13.49-6.21,13.61-13.63l-.11-2.13c-.94-6.89-6.9-12.15-14.01-12.03-7.64.15-13.77,6.49-13.63,14.16.09,4.54,2.37,8.53,5.79,11l-33.49,58.07c-1.12-.43-2.31-.66-3.56-.63-4.69.09-8.52,3.53-9.29,7.98l-69.15-.02c-.32-6.62-5.85-11.86-12.52-11.73-1.72.04-3.36.43-4.85,1.09l-32.46-56.29c2.92-2.31,4.78-5.89,4.7-9.88-.12-6.81-5.76-12.23-12.54-12.12-6.05.12-10.98,4.58-11.94,10.35l-69.88-.03c-.78-4.3-4.57-7.57-9.08-7.48-.98,0-1.9.23-2.79.53l-1.95.93c-2.55,1.65-4.22,4.52-4.19,7.79.06,2.94,1.55,5.52,3.76,7.14l-34.25,59.32c-1.47-.58-3.09-.89-4.76-.87-6.34.11-11.48,5.03-12.04,11.21l-68.44-.03c-.78-5.43-5.46-9.6-11.08-9.49-1.37.02-2.68.33-3.89.82l-35.52-61.64c2.25-1.69,3.69-4.38,3.63-7.4-.06-2.93-1.52-5.49-3.72-7.11l35.41-61.33c1.46.67,3.1,1.08,4.81,1.05,5.63-.11,10.15-4.43,10.73-9.89l.02-2.13c-.52-5.72-5.34-10.17-11.16-10.08-6.07.12-10.92,5.16-10.82,11.25.08,3.59,1.86,6.72,4.56,8.69l-35.41,61.35c-1.12-.47-2.37-.75-3.68-.73-4.59.09-8.3,3.61-8.82,8.06l-71.03-.02c-.4-5.82-5.27-10.39-11.16-10.29-1.4.03-2.73.34-3.96.85l-1.89.99c-3.04,2.03-5.03,5.49-4.98,9.41.07,3.79,2.07,7.12,5.03,9.05l-35.48,61.5c-1.18-.51-2.45-.81-3.81-.78-4.52.08-8.19,3.48-8.8,7.83l-70.72-.02c-.51-5.72-5.32-10.19-11.13-10.08-1.44.02-2.8.34-4.06.88l-32.85-57.04c3.43-2.59,5.62-6.71,5.54-11.34-.07-4.52-2.32-8.48-5.7-10.96l-1.81-1.14c-1.98-1.03-4.24-1.59-6.62-1.56-7.13.14-12.92,5.66-13.56,12.62l-67.06-.02c-.72-4.38-4.52-7.72-9.08-7.63-5.01.09-9.01,4.24-8.91,9.25.05,2.75,1.36,5.18,3.32,6.81l-35.36,61.28c-1.72-1.03-3.71-1.62-5.84-1.59-5.81.11-10.44,4.73-10.76,10.45l-66.07-.02c-.51-6.45-5.95-11.48-12.49-11.36-1.73.02-3.37.42-4.85,1.09l-34.2-59.36c2.43-1.78,4-4.68,3.94-7.93-.09-5.29-4.49-9.54-9.78-9.44-4.83.09-8.73,3.75-9.31,8.41l-73.07-.03c-.27-4.54-4.07-8.13-8.67-8.06-1.18.02-2.3.29-3.31.75l-33.95-58.9c3.75-2.56,6.17-6.88,6.09-11.75-.14-7.66-6.48-13.78-14.14-13.63-7.26.13-13.13,5.86-13.59,13.01l.04,2.14c.65,7.17,6.75,12.76,14.06,12.64,2.03-.04,3.94-.53,5.68-1.35l34,58.98c-2.01,1.6-3.31,4.06-3.26,6.82.06,2.86,1.52,5.35,3.7,6.85l-34.16,59.18c-1.9-.93-4.04-1.43-6.29-1.39-7.35.13-13.26,6-13.59,13.26l.05,2.14ZM98.76,28.15c-6.47.12-11.84-5.06-11.96-11.54-.11-6.49,5.06-11.86,11.54-11.96,6.48-.12,11.83,5.05,11.96,11.53.11,6.49-5.05,11.86-11.53,11.98ZM814.27,16.88c-.08-4.9,3.82-8.98,8.74-9.06,4.89-.09,8.96,3.84,9.06,8.74.07,4.91-3.84,8.98-8.73,9.06-4.91.1-8.98-3.83-9.07-8.74ZM1218.78,96.53c-.13-6.48,5.05-11.86,11.53-11.98,6.48-.11,11.84,5.06,11.96,11.54.11,6.48-5.06,11.86-11.54,11.98-6.47.11-11.83-5.07-11.95-11.54ZM1492.84,96.3c-.1-5.62,4.38-10.27,10-10.37,5.62-.11,10.27,4.38,10.37,9.99.1,5.63-4.39,10.29-10,10.4-5.62.1-10.27-4.4-10.37-10.02ZM1373.59,173.88c.06,3.83-2.99,7-6.81,7.07-3.83.08-7-2.98-7.08-6.81-.06-3.83,3-7,6.82-7.08,3.84-.07,7.01,3,7.07,6.83ZM1457.99,184.47c-5.62.11-10.26-4.38-10.38-10-.09-5.63,4.39-10.28,10-10.38,5.63-.11,10.27,4.39,10.36,10.01.11,5.62-4.37,10.28-9.99,10.37ZM1494.24,253.4c-.09-4.65,3.6-8.49,8.24-8.58,4.63-.07,8.48,3.63,8.56,8.27.09,4.64-3.61,8.47-8.26,8.56-4.63.08-8.46-3.62-8.53-8.25ZM1450.31,331.99c-.07-3.84,2.99-7.02,6.8-7.08,3.83-.07,6.99,2.98,7.07,6.82.06,3.84-2.99,7.01-6.8,7.07-3.84.08-7.01-2.99-7.07-6.8ZM1366.34,322.64c4.65-.09,8.48,3.63,8.55,8.26.08,4.65-3.62,8.47-8.25,8.56-4.63.09-8.47-3.61-8.57-8.25-.08-4.64,3.63-8.48,8.26-8.57ZM1328.2,262.22c3.27-2.28,5.39-6.09,5.32-10.37-.08-3.91-1.97-7.36-4.86-9.56l34.57-59.88c1.1.47,2.31.71,3.58.69,4.57-.09,8.25-3.54,8.8-7.93l69.93.02c.47,6.48,5.94,11.55,12.49,11.42,1.68-.02,3.29-.39,4.74-1.04l33.86,59c-2.79,1.95-4.6,5.2-4.53,8.86.06,3.37,1.73,6.32,4.22,8.21l-35.68,61.79c-1.1-.46-2.29-.7-3.56-.67-4.32.08-7.87,3.19-8.71,7.25l-71.44-.03c-.55-5.4-5.11-9.58-10.62-9.49-1.42.03-2.78.34-4.01.88l-34.09-59.16ZM1311.01,252.26c-.09-5.62,4.38-10.29,10-10.39,5.62-.11,10.27,4.4,10.37,10.01.1,5.62-4.38,10.28-10,10.37-5.62.11-10.27-4.39-10.37-10ZM1229.96,399.96c5.63-.1,10.27,4.39,10.37,10.01.1,5.63-4.38,10.28-9.99,10.39-5.62.11-10.27-4.39-10.38-10.01-.1-5.62,4.39-10.29,10-10.39ZM965.47,95.82c.06,3.82-2.98,7.01-6.82,7.07-3.84.07-6.99-2.99-7.07-6.82-.08-3.82,2.99-7,6.82-7.07,3.81-.08,6.99,2.98,7.06,6.82ZM1049.67,106.56c-5.63.11-10.27-4.38-10.37-10.01-.11-5.62,4.38-10.28,10.01-10.38,5.6-.1,10.26,4.39,10.36,10.01.11,5.62-4.37,10.28-10,10.38ZM1104.82,173.38c.09,5.63-4.38,10.28-10,10.37-5.62.11-10.27-4.37-10.36-10-.11-5.61,4.37-10.27,10-10.37,5.61-.11,10.27,4.39,10.37,10.01ZM1185.68,182.1c-4.11.07-7.54-3.23-7.61-7.34-.07-4.13,3.22-7.54,7.33-7.62,4.13-.08,7.53,3.22,7.61,7.35.08,4.11-3.22,7.53-7.33,7.61ZM1219.9,252.82c-.09-5.62,4.4-10.27,10.02-10.38,5.6-.11,10.26,4.4,10.36,10.01.1,5.62-4.39,10.28-10,10.38-5.61.1-10.27-4.39-10.39-10.01ZM1177.06,331.13c-.1-4.64,3.62-8.48,8.25-8.57,4.64-.07,8.48,3.63,8.55,8.26.09,4.65-3.6,8.47-8.25,8.57-4.62.08-8.47-3.63-8.55-8.26ZM1094.57,324.22c3.83-.07,7,2.99,7.08,6.82.07,3.83-3,7.01-6.82,7.07-3.83.07-6.99-2.99-7.06-6.82-.07-3.82,2.98-7.01,6.81-7.07ZM1055.56,261.03c2.51-1.78,4.1-4.72,4.05-8-.06-3.29-1.79-6.18-4.35-7.86l34.73-60.18c1.5.61,3.15.94,4.88.91,6.19-.12,11.23-4.81,11.98-10.79l69.13.02c.26,5.15,4.56,9.21,9.73,9.11,1.34-.02,2.58-.32,3.73-.82l33.95,58.9c-3.44,2.24-5.68,6.14-5.61,10.55.07,4.29,2.36,8.02,5.72,10.17l-33.69,58.35c-1.39-.63-2.93-1-4.54-.97-5.46.11-9.83,4.36-10.27,9.7h-2.77l-68.56-.02c-.54-4.58-4.43-8.12-9.13-8.03-1.19.02-2.33.29-3.37.73l-35.6-61.78ZM1042.52,253.35c-.08-4.13,3.22-7.55,7.34-7.62,4.12-.07,7.53,3.23,7.61,7.33.08,4.14-3.22,7.55-7.35,7.63-4.12.07-7.52-3.22-7.6-7.34ZM958.84,245.35c3.84-.07,6.99,2.99,7.07,6.81.06,3.83-2.99,7.01-6.82,7.07-3.84.07-6.99-2.99-7.07-6.82-.06-3.82,2.99-7,6.82-7.07ZM921.05,184.41c3.48-2.24,5.76-6.16,5.68-10.59-.08-4.3-2.35-8.04-5.73-10.19l34.19-59.25c1.07.43,2.26.66,3.49.64,4.76-.09,8.58-3.87,8.85-8.54l69.63.02v.08c.11,6.81,5.75,12.24,12.54,12.12,2.04-.04,3.95-.57,5.63-1.49l32.37,56.18c-3.31,2.27-5.46,6.09-5.39,10.4.08,4.24,2.28,7.93,5.57,10.09l-34.79,60.26c-1.03-.35-2.12-.57-3.28-.56-4.66.09-8.49,3.5-9.29,7.93l-72.56-.03c-.42-4.7-4.4-8.37-9.17-8.27-1.21.02-2.37.29-3.43.73l-34.32-59.54ZM904.23,174.23c-.09-5.62,4.39-10.28,9.99-10.39,5.63-.11,10.27,4.39,10.37,10.02.12,5.61-4.37,10.27-10,10.38-5.6.11-10.27-4.39-10.36-10.01ZM822.36,324.01c3.82-.07,6.99,2.99,7.05,6.81.08,3.85-2.98,7.01-6.8,7.08-3.83.07-7.01-2.99-7.07-6.82-.08-3.84,2.98-7.01,6.82-7.08ZM650.75,330.87c.08,4.93-3.83,9-8.74,9.08-4.92.09-8.97-3.83-9.07-8.74-.09-4.91,3.83-8.97,8.74-9.06,4.9-.09,8.97,3.83,9.07,8.73ZM695.7,94.86c.09,4.91-3.83,8.98-8.73,9.07-4.91.1-8.97-3.84-9.06-8.74-.09-4.91,3.84-8.97,8.73-9.06,4.91-.1,8.98,3.83,9.07,8.74ZM777.89,102.27c-3.83.07-6.99-2.99-7.06-6.83-.07-3.83,2.99-7,6.81-7.07,3.83-.07,7,3,7.07,6.82.07,3.82-2.99,7.01-6.82,7.08ZM813.94,174.58c-.1-4.91,3.81-8.98,8.73-9.06,4.92-.1,8.98,3.83,9.06,8.75.1,4.91-3.84,8.97-8.73,9.07-4.91.08-8.98-3.84-9.05-8.76ZM771.07,252.26c-.07-3.84,2.99-7,6.82-7.08,3.83-.07,6.99,2.99,7.06,6.83.08,3.82-2.98,7-6.81,7.07-3.83.08-7-2.99-7.07-6.81ZM686.61,241.98c5.62-.1,10.26,4.39,10.36,10.02.11,5.62-4.38,10.27-10,10.37-5.61.11-10.27-4.38-10.36-10.01-.12-5.62,4.38-10.26,10-10.38ZM647.27,181.17c2.14-1.71,3.52-4.32,3.47-7.26-.06-2.81-1.41-5.26-3.42-6.89l35.59-61.67c1.27.47,2.65.74,4.08.71,5.55-.09,10.04-4.31,10.7-9.66l71.11.02c.56,4.56,4.45,8.08,9.14,7.99,1.17-.02,2.28-.29,3.3-.71l35.49,61.55c-3.02,2.02-5.01,5.48-4.93,9.37.05,3.63,1.9,6.79,4.64,8.77l-34.87,60.4c-1.13-.49-2.39-.78-3.73-.75-4.71.08-8.48,3.78-8.84,8.39l-69.93-.02c-.41-6.53-5.89-11.67-12.5-11.55-1.73.02-3.36.41-4.84,1.1l-34.46-59.78ZM634.72,174.2c-.07-3.84,2.98-7.01,6.81-7.08,3.82-.07,7,3,7.07,6.82.07,3.83-2.99,7-6.81,7.08-3.83.07-7-3-7.07-6.82ZM376.92,330.73c.07,3.84-2.99,7-6.81,7.07-3.83.08-7-2.98-7.07-6.82-.07-3.82,2.99-7.01,6.81-7.08,3.83-.07,7,3,7.07,6.83ZM422.74,95.5c.07,3.83-2.98,7-6.81,7.07-3.83.07-6.99-2.98-7.06-6.82-.07-3.83,2.98-7.01,6.8-7.07,3.83-.08,7,2.98,7.07,6.81ZM505.82,107.23c-6.48.11-11.85-5.04-11.96-11.53-.11-6.49,5.06-11.86,11.52-11.97,6.49-.12,11.85,5.05,11.97,11.54.12,6.49-5.05,11.85-11.53,11.96ZM542.14,173.93c-.08-4.91,3.84-8.98,8.74-9.07,4.91-.09,8.98,3.84,9.07,8.74.1,4.9-3.82,8.97-8.74,9.07-4.9.09-8.97-3.82-9.07-8.74ZM496.71,252.08c-.09-4.91,3.82-8.97,8.72-9.07,4.92-.09,8.97,3.84,9.08,8.74.08,4.91-3.83,8.99-8.75,9.08-4.9.09-8.96-3.84-9.05-8.75ZM415.23,242.07c5.61-.1,10.26,4.4,10.36,10.01.11,5.63-4.38,10.28-9.99,10.37-5.63.12-10.28-4.37-10.39-10-.1-5.62,4.39-10.28,10.01-10.38ZM376.17,181.73c2.43-2.07,4-5.15,3.94-8.59-.07-3.18-1.49-6.01-3.68-7.98l35.44-61.4c1.25.61,2.64.96,4.11.94,4.71-.09,8.49-3.78,8.84-8.38l66.95.02c.46,7.37,6.65,13.17,14.09,13.03,2.26-.04,4.4-.64,6.26-1.64l32.79,56.89c-3.01,2.02-4.97,5.47-4.9,9.35.06,3.78,2.04,7.07,4.95,9.01l-34.19,59.25c-1.61-.87-3.43-1.39-5.38-1.35-5.81.09-10.47,4.74-10.77,10.47l-66.95-.03c-.49-6.45-5.94-11.5-12.49-11.38-1.72.03-3.37.41-4.85,1.09l-34.18-59.3ZM360.18,173.5c-.1-4.9,3.82-8.98,8.73-9.06,4.91-.09,8.98,3.83,9.07,8.74.09,4.92-3.84,8.98-8.74,9.07-4.92.09-8.97-3.84-9.06-8.75ZM150.16,94.47c.07,3.53-2.75,6.48-6.29,6.53-3.52.07-6.45-2.76-6.52-6.29-.07-3.53,2.76-6.46,6.29-6.52,3.54-.08,6.46,2.76,6.53,6.28ZM234.95,102.81c-4.11.09-7.52-3.21-7.61-7.34-.07-4.13,3.22-7.55,7.34-7.62,4.12-.08,7.53,3.22,7.62,7.35.07,4.11-3.23,7.54-7.35,7.61ZM269.59,173.87c-.1-5.63,4.37-10.28,10-10.38,5.61-.1,10.27,4.38,10.38,10.01.09,5.63-4.39,10.27-10,10.37-5.62.11-10.28-4.38-10.38-10ZM227.71,252.45c-.07-3.84,2.98-7.01,6.82-7.07,3.82-.07,6.99,3,7.07,6.82.07,3.84-3,7-6.82,7.07-3.82.08-7-2.99-7.07-6.81ZM143.79,243.37c4.92-.09,8.98,3.82,9.07,8.74.1,4.92-3.82,8.97-8.73,9.07-4.92.09-8.98-3.84-9.07-8.74-.08-4.91,3.83-8.99,8.73-9.07ZM106.38,184.85c3.82-2.53,6.31-6.91,6.23-11.82-.08-4.58-2.39-8.6-5.86-11.07l34.23-59.32c.93.31,1.91.51,2.93.5,4.08-.09,7.47-3.05,8.22-6.92l73.17.02c.48,4.94,4.65,8.79,9.7,8.7,1.29-.02,2.51-.31,3.64-.79l34.19,59.34c-3.31,2.27-5.46,6.1-5.38,10.41.08,4.09,2.15,7.69,5.27,9.86l-34.69,60.12c-1.09-.45-2.28-.68-3.54-.65-4.59.09-8.29,3.59-8.82,8.03l-70.78-.02c-.54-5.68-5.34-10.11-11.13-10.01-1.54.02-3.01.37-4.32.97l-33.05-57.35ZM86.98,173.5c-.11-6.49,5.06-11.85,11.54-11.96,6.48-.13,11.84,5.04,11.96,11.54.11,6.48-5.06,11.85-11.53,11.97-6.47.11-11.85-5.07-11.96-11.55Z"/>
              <g>
                <path class="cls-35" d="M1448.12,254.84c-.03-1.79-.94-3.37-2.3-4.36l-.99-.57c-.71-.32-1.5-.51-2.34-.49-2.88.05-5.18,2.32-5.39,5.13l-38.23-.02c-.32-2.42-2.39-4.28-4.88-4.23-.66,0-1.28.16-1.85.4l-18.16-31.51c2.01-1.37,3.31-3.68,3.27-6.28-.05-2.54-1.37-4.76-3.33-6.06l18.06-31.3c.65.29,1.36.48,2.12.47,2.52-.05,4.53-2.03,4.73-4.49l-.04-1.15c-.38-2.36-2.42-4.15-4.87-4.1-2.68.05-4.82,2.27-4.77,4.95.02,1.52.76,2.84,1.86,3.72l-18.09,31.34c-.99-.45-2.08-.7-3.24-.69-3.85.07-6.97,3.08-7.27,6.84h-33.7c-.21-3.99-3.54-7.12-7.55-7.05-1.11.02-2.16.28-3.09.74l-17.47-30.3c1.48-1.1,2.42-2.86,2.38-4.84-.06-3.26-2.75-5.86-6.01-5.81-2.96.05-5.36,2.3-5.73,5.17h-35.74v-.02c-.08-4.1-3.47-7.38-7.58-7.31-4.09.07-7.37,3.48-7.29,7.58.05,2.73,1.57,5.09,3.79,6.35l-17.99,31.17c-.56-.19-1.15-.31-1.76-.29-2.61.04-4.71,2.05-5,4.58v1.14c.3,2.6,2.52,4.62,5.19,4.58.55-.02,1.07-.13,1.56-.3l18.64,32.34c-1.49,1.1-2.45,2.87-2.41,4.86.03,1.99,1.05,3.73,2.59,4.77l-18.33,31.74c-.75-.33-1.58-.52-2.44-.5-3.09.06-5.55,2.49-5.76,5.53l.04,1.15c.38,2.94,2.9,5.21,5.94,5.16,3.26-.06,5.86-2.76,5.8-6.03-.04-1.98-1.05-3.71-2.57-4.76l18.33-31.74c.74.32,1.56.5,2.41.48,2.98-.06,5.38-2.32,5.74-5.19l35.19.02c.32,3.87,3.6,6.89,7.54,6.82,1.08-.02,2.1-.28,3.01-.7l18.23,31.63c-1.25.9-2.05,2.37-2.03,4.03.03,1.53.79,2.87,1.91,3.74l-18.92,32.79c-.74-.33-1.57-.51-2.44-.5-2.98.06-5.38,2.33-5.73,5.21l-.03,1.14c.22,3.11,2.82,5.55,5.97,5.49.84-.02,1.64-.21,2.36-.55l1.05-.63c1.48-1.1,2.43-2.86,2.4-4.84-.04-1.98-1.06-3.72-2.57-4.76l18.9-32.75c.63.29,1.32.45,2.07.44,2.51-.04,4.53-2.01,4.73-4.46h36.43c.26,3.94,3.56,7.04,7.55,6.97,1.08-.02,2.1-.29,3.03-.72l17.89,31.05c-1.23.91-2.03,2.37-2,4.01.03,1.65.88,3.08,2.15,3.94l1.14.56c.53.18,1.08.29,1.67.29,2.34-.05,4.28-1.76,4.7-3.99l.06-1.14c-.14-2.6-2.31-4.65-4.93-4.61-.63,0-1.23.15-1.78.38l-17.9-31.05c2.01-1.37,3.32-3.69,3.27-6.3-.05-2.55-1.38-4.77-3.36-6.08l18.16-31.45c.64.28,1.33.45,2.08.43,2.47-.04,4.46-1.94,4.72-4.35l38.25.02c.38,2.74,2.73,4.84,5.55,4.79,3.05-.06,5.48-2.59,5.42-5.65ZM1393.72,335.23c2.05-.04,3.75,1.6,3.79,3.65.03,2.05-1.61,3.75-3.65,3.79-2.06.04-3.75-1.6-3.78-3.65-.04-2.06,1.59-3.75,3.64-3.79ZM1301.76,339.29c.04,2.63-2.06,4.81-4.68,4.85-2.62.05-4.8-2.05-4.85-4.68-.05-2.63,2.05-4.81,4.67-4.86,2.63-.04,4.8,2.05,4.86,4.69ZM1229.34,296.86c.05,2.63-2.05,4.81-4.68,4.85-2.62.05-4.8-2.05-4.85-4.68-.05-2.63,2.05-4.81,4.68-4.86,2.63-.04,4.8,2.06,4.85,4.69ZM1390.28,171.2c-.04-2.06,1.61-3.75,3.65-3.79,2.05-.04,3.75,1.6,3.78,3.65.04,2.06-1.59,3.75-3.64,3.79-2.05.04-3.75-1.6-3.79-3.65ZM1363.58,297.37c-.07-3.47,2.7-6.35,6.17-6.41,3.47-.07,6.34,2.71,6.41,6.18.06,3.47-2.71,6.35-6.19,6.41-3.46.07-6.34-2.71-6.4-6.18ZM1321.13,293.6c2.06-.03,3.75,1.6,3.79,3.65.04,2.05-1.6,3.76-3.65,3.79-2.06.03-3.75-1.6-3.79-3.66-.03-2.05,1.6-3.76,3.65-3.79ZM1290.68,255.14c-.06-3.47,2.71-6.35,6.18-6.42,3.47-.06,6.35,2.71,6.41,6.18.06,3.47-2.71,6.35-6.18,6.41-3.47.06-6.34-2.71-6.4-6.18ZM1248.46,250.13c2.63-.05,4.81,2.06,4.85,4.68.05,2.64-2.05,4.81-4.67,4.86-2.63.04-4.8-2.06-4.85-4.69-.05-2.63,2.05-4.81,4.67-4.85ZM1228.76,212.89c.04,2.21-1.73,4.04-3.93,4.08-2.21.04-4.04-1.73-4.08-3.94-.03-2.2,1.73-4.03,3.94-4.08,2.2-.04,4.04,1.73,4.08,3.94ZM1254.34,170.34c.07,3.47-2.7,6.34-6.17,6.41-3.46.07-6.34-2.71-6.4-6.18-.06-3.47,2.71-6.35,6.18-6.42,3.46-.06,6.34,2.71,6.4,6.19ZM1297.16,175.86c-2.63.04-4.8-2.06-4.85-4.68-.05-2.64,2.05-4.81,4.67-4.86,2.62-.05,4.81,2.06,4.86,4.68.05,2.63-2.05,4.81-4.68,4.86ZM1317.07,206.7c-1.98,1.37-3.27,3.67-3.22,6.26.05,2.51,1.34,4.7,3.26,6.02l-16.94,29.34c-1.01-.49-2.14-.76-3.33-.74-3.88.07-7,3.12-7.27,6.92h-35.15c-.22-3.12-2.83-5.57-5.98-5.52-.83.02-1.63.21-2.34.54l-18.58-32.23c1.46-.94,2.42-2.58,2.38-4.43-.03-1.81-1-3.38-2.44-4.28l17.99-31.18c.86.33,1.77.5,2.74.48,3.7-.07,6.73-2.86,7.22-6.43h35.79c.2,3.14,2.82,5.59,5.98,5.53.87-.02,1.69-.24,2.43-.6l17.46,30.29ZM1327.57,212.71c.07,3.47-2.7,6.35-6.17,6.41-3.47.06-6.34-2.71-6.4-6.18-.06-3.48,2.71-6.35,6.17-6.41,3.47-.06,6.34,2.71,6.4,6.18ZM1369.93,219.33c-3.47.07-6.34-2.71-6.4-6.18-.07-3.47,2.71-6.35,6.17-6.41,3.47-.06,6.34,2.71,6.41,6.19.06,3.47-2.71,6.34-6.17,6.41ZM1391.11,251.33c-1.16.91-1.93,2.33-1.89,3.92.03,1.53.78,2.87,1.9,3.73l-18.18,31.5c-.98-.44-2.06-.68-3.2-.66-3.83.07-6.94,3.04-7.27,6.78h-36.47c-.38-2.37-2.42-4.18-4.87-4.13-.62,0-1.21.15-1.75.37l-18.24-31.65c2.02-1.36,3.33-3.68,3.29-6.3-.05-2.46-1.28-4.61-3.15-5.94l16.95-29.36c.98.45,2.07.69,3.2.67,3.8-.07,6.89-2.99,7.26-6.69h33.73c.29,3.92,3.58,6.99,7.54,6.91,1.07-.02,2.07-.27,2.99-.7l18.17,31.54ZM1397.79,255.09c.04,2.06-1.6,3.76-3.64,3.79-2.05.04-3.75-1.6-3.79-3.65-.04-2.06,1.6-3.76,3.65-3.8,2.05-.04,3.75,1.6,3.78,3.65ZM1446.99,254.86c.04,2.42-1.89,4.43-4.3,4.47-2.42.04-4.42-1.89-4.47-4.3-.04-2.43,1.89-4.43,4.31-4.48,2.42-.05,4.42,1.89,4.47,4.31Z"/>
                <path class="cls-37" d="M1183.1,212.38c-.4-3.78-3.64-6.71-7.53-6.63-1.05.02-2.05.26-2.96.68l-17.71-30.73c1.54-1.09,2.53-2.9,2.49-4.93-.05-3.26-2.75-5.86-6.01-5.8-3.02.05-5.45,2.39-5.74,5.33l-37.93-.02c-.29-2.44-2.37-4.33-4.89-4.29-.6.02-1.18.15-1.71.36l-1.01.54c-1.27.9-2.09,2.4-2.06,4.06.03,1.55.8,2.91,1.96,3.79l-18.6,32.2c-.85-.38-1.79-.59-2.79-.57-3.38.06-6.13,2.69-6.44,5.98l-35.44-.02c-.42-2.92-2.92-5.15-5.93-5.1-.98.02-1.88.29-2.69.73l-18.25-31.67c1.74-1.22,2.86-3.26,2.82-5.54-.04-2.24-1.19-4.2-2.93-5.36l18.59-32.22c.66.31,1.39.5,2.17.48,2.47-.05,4.46-1.94,4.72-4.34v-1.15c-.33-2.42-2.4-4.29-4.9-4.25-.69.02-1.35.18-1.95.46l-.97.62c-1.14.9-1.88,2.31-1.86,3.88.02,1.5.74,2.81,1.82,3.68l-18.64,32.28c-.84-.38-1.78-.58-2.77-.56-3.38.06-6.13,2.67-6.44,5.96h-35.92c-.41-2.91-2.92-5.14-5.92-5.08-3.25.06-5.86,2.76-5.8,6.02.03,1.8.88,3.38,2.18,4.44l-18.37,31.83c-.72-.29-1.52-.46-2.35-.44-3.01.06-5.43,2.37-5.75,5.29l-37.86-.02c-.25-2.5-2.35-4.44-4.91-4.39-.69,0-1.35.18-1.95.46l-18.42-31.96c1.77-1.22,2.92-3.28,2.88-5.58-.04-2.28-1.24-4.27-3.01-5.43l18.08-31.31c.77.34,1.62.55,2.52.53,3.26-.06,5.86-2.76,5.8-6.02-.06-3.26-2.76-5.86-6.02-5.8-.83,0-1.61.2-2.32.52l-.99.57c-1.54,1.1-2.53,2.9-2.5,4.93.03,1.94,1.03,3.65,2.51,4.69l-18.1,31.36c-.83-.35-1.73-.54-2.69-.53-3.35.06-6.07,2.62-6.43,5.87h-37.53c-.38-2.37-2.42-4.15-4.86-4.11-.58.01-1.12.14-1.63.33l-19.4-33.65c1.32-.89,2.18-2.41,2.15-4.13-.03-1.67-.91-3.13-2.21-3.98l-1.04-.5c-.53-.19-1.11-.3-1.7-.29-2.68.05-4.82,2.28-4.77,4.96.04,2.68,2.27,4.83,4.95,4.77.55,0,1.08-.14,1.57-.32l19.41,33.65c-1.31.9-2.15,2.41-2.13,4.11.03,1.56.81,2.92,1.97,3.79l-18.68,32.36c-.77-.35-1.63-.57-2.54-.54-3.12.06-5.61,2.53-5.77,5.6h-36.61c-.28-3.45-3.19-6.15-6.69-6.08-.86.02-1.68.2-2.42.52l-18.42-31.94c1.21-.91,1.99-2.35,1.96-3.97-.05-2.69-2.28-4.83-4.95-4.77-2.4.04-4.35,1.84-4.71,4.14h-38.83c-.13-2.78-2.43-4.98-5.22-4.92-.67.01-1.31.16-1.89.4l-19.08-33.1c1.22-.9,2.01-2.36,1.98-3.99-.03-1.59-.83-2.98-2.03-3.84l-.99-.57c-.6-.24-1.25-.38-1.93-.37-2.45.05-4.43,1.92-4.72,4.29h-38.22c-.36-2.85-2.78-5.03-5.68-4.98-.77.02-1.51.19-2.17.49l-18.22-31.61c1.93-1.19,3.2-3.32,3.15-5.75-.04-2.21-1.17-4.16-2.88-5.32l-1.1-.61c-.84-.36-1.76-.56-2.74-.55-3.46.07-6.27,2.82-6.46,6.24l.03,1.15c.39,3.32,3.25,5.89,6.68,5.82.8-.01,1.58-.18,2.29-.47l18.25,31.67c-1.47,1.04-2.41,2.77-2.37,4.71.03,1.83.95,3.43,2.33,4.44l-18.07,31.3c-.81-.34-1.7-.52-2.64-.5-3.41.06-6.17,2.71-6.45,6.03h-35.69c-.44-3.28-3.28-5.79-6.65-5.72-.94.02-1.83.23-2.63.61l-18.26-31.68c1.47-1.04,2.43-2.78,2.4-4.72-.04-1.82-.94-3.4-2.29-4.41l-.98-.58c-.76-.36-1.59-.57-2.48-.56-2.85.05-5.15,2.23-5.48,4.99h-38.17c-.14-2.61-2.31-4.68-4.94-4.63-.68.01-1.32.17-1.89.43l-.97.6c-1.18.91-1.94,2.33-1.91,3.93.03,1.6.84,2.99,2.05,3.85l-19.09,33.07c-.76-.36-1.61-.57-2.5-.56-2.9.06-5.23,2.3-5.5,5.13v1.14c.33,2.87,2.76,5.09,5.7,5.04.73,0,1.4-.17,2.04-.43l5.84,10.14,12.29,21.49c-1.77,1.22-2.9,3.26-2.86,5.56.03,2.17,1.13,4.07,2.77,5.25l-17.73,30.45c-.85-.38-1.8-.59-2.78-.57-3.42.06-6.19,2.74-6.46,6.08l.02,1.15c.32,3.4,3.21,6.05,6.68,5.99,3.64-.07,6.54-3.09,6.48-6.72-.04-2.25-1.2-4.2-2.93-5.36l17.71-30.42c.9.43,1.9.66,2.96.65,3.38-.06,6.12-2.66,6.44-5.94h37.45c.26,2.48,2.37,4.4,4.9,4.35.67,0,1.31-.16,1.9-.42l.97-.6c1.18-.91,1.93-2.34,1.91-3.93-.03-1.55-.8-2.91-1.96-3.78l18.49-32.03c.92.46,1.97.71,3.06.7,3.51-.07,6.33-2.88,6.46-6.35h35.64c.3,3.44,3.2,6.11,6.69,6.05.85-.02,1.66-.2,2.4-.5l18.22,31.61c-1.25.96-2.05,2.47-2.02,4.16.03,1.76.94,3.31,2.32,4.2l-17.89,31.01c-1.05-.54-2.24-.83-3.5-.8-4.01.07-7.22,3.32-7.29,7.3l.06,1.14c.5,3.68,3.7,6.51,7.5,6.44,4.1-.08,7.38-3.48,7.3-7.58-.05-2.43-1.27-4.57-3.1-5.89l17.94-31.1c.6.23,1.24.35,1.91.34,2.51-.05,4.56-1.89,4.97-4.27h37.03c.17,3.56,3.13,6.36,6.7,6.3.92-.02,1.8-.23,2.6-.58l17.39,30.15c-1.56,1.24-2.56,3.15-2.52,5.29.07,3.65,3.09,6.55,6.72,6.49,3.24-.06,5.88-2.45,6.4-5.54l37.43.02c.41,2.3,2.44,4.05,4.86,4,.52,0,1.02-.12,1.5-.29l1.04-.49c1.36-.88,2.26-2.42,2.24-4.17-.03-1.57-.83-2.96-2.01-3.82l18.34-31.77c.78.3,1.65.47,2.55.46,3.39-.06,6.15-2.69,6.45-6l36.66.02c.41,2.91,2.92,5.15,5.93,5.09.73-.01,1.43-.18,2.08-.44l19.02,33.01c-1.2.91-1.97,2.35-1.94,3.97.03,1.57.81,2.94,1.99,3.81l-18.96,32.84c-.78-.36-1.66-.58-2.58-.57-3.01.06-5.44,2.37-5.75,5.3v1.14c.27,3.06,2.85,5.44,5.96,5.4,3.25-.06,5.85-2.76,5.8-6.03-.04-1.92-1-3.6-2.44-4.65l18.96-32.86c.6.25,1.27.4,1.97.39,2.46-.05,4.44-1.94,4.72-4.31h38.04c.22,3.12,2.82,5.58,5.98,5.52.76-.02,1.46-.19,2.13-.45l1.01-.53c1.63-1.08,2.7-2.94,2.66-5.04-.04-2.03-1.11-3.81-2.69-4.85l19.01-32.93c.63.28,1.32.43,2.04.42,2.43-.04,4.39-1.86,4.71-4.19h37.87c.28,3.07,2.85,5.47,5.96,5.41.78,0,1.5-.19,2.17-.47l17.59,30.55c-1.84,1.38-3.01,3.59-2.96,6.07.04,2.42,1.24,4.54,3.05,5.87l.97.61c1.06.55,2.27.85,3.54.83,3.82-.07,6.92-3.03,7.26-6.76h35.91c.38,2.36,2.42,4.15,4.87,4.1,2.68-.05,4.83-2.27,4.77-4.95-.02-1.48-.73-2.78-1.78-3.65l18.94-32.82c.91.56,1.98.87,3.13.86,3.11-.06,5.59-2.53,5.76-5.6h35.39c.27,3.47,3.18,6.16,6.69,6.1.93-.02,1.81-.23,2.6-.58l18.32,31.79c-1.3.96-2.14,2.51-2.11,4.25.05,2.83,2.4,5.11,5.24,5.05,2.59-.04,4.67-2.01,4.99-4.5l39.13.02c.15,2.43,2.19,4.36,4.64,4.32.63-.02,1.23-.16,1.78-.4l18.18,31.55c-2.01,1.37-3.31,3.68-3.27,6.29.08,4.11,3.47,7.38,7.57,7.3,3.89-.07,7.03-3.14,7.28-6.97l-.02-1.14c-.35-3.84-3.61-6.84-7.53-6.77-1.08.02-2.11.29-3.04.72l-18.21-31.59c1.08-.86,1.77-2.17,1.75-3.66-.03-1.53-.81-2.86-1.98-3.67l18.29-31.69c1.02.5,2.16.76,3.37.74,3.94-.07,7.1-3.21,7.28-7.1l-.03-1.15ZM1175.7,290.91c3.47-.07,6.35,2.71,6.41,6.18.06,3.48-2.71,6.35-6.18,6.41-3.47.07-6.33-2.71-6.4-6.18-.06-3.47,2.7-6.35,6.17-6.41ZM792.49,296.95c.04,2.63-2.05,4.81-4.68,4.85-2.62.05-4.8-2.05-4.85-4.68-.04-2.63,2.05-4.81,4.67-4.86,2.63-.05,4.81,2.05,4.86,4.68ZM575.85,254.29c.07,3.47-2.71,6.35-6.17,6.41-3.47.06-6.34-2.71-6.41-6.18-.06-3.46,2.71-6.34,6.18-6.41,3.47-.06,6.34,2.71,6.4,6.18ZM429.07,254.41c.05,3.01-2.35,5.5-5.36,5.56-3.01.06-5.5-2.35-5.56-5.36-.05-3.01,2.35-5.51,5.35-5.57,3.01-.05,5.5,2.36,5.56,5.36ZM492.94,212.87c-.03-2.05,1.6-3.75,3.65-3.78,2.05-.04,3.75,1.59,3.79,3.65.03,2.05-1.61,3.75-3.65,3.79-2.05.04-3.75-1.61-3.79-3.65ZM447.73,207.2c3.01-.06,5.49,2.34,5.56,5.36.05,3.01-2.35,5.5-5.35,5.56-3.01.06-5.5-2.35-5.55-5.36-.06-3.01,2.34-5.5,5.35-5.56ZM428.32,170.28c.05,2.49-1.93,4.55-4.41,4.6-2.48.04-4.54-1.94-4.58-4.43-.05-2.49,1.93-4.54,4.43-4.59,2.48-.04,4.53,1.94,4.57,4.42ZM451.85,128.19c.04,2.06-1.6,3.76-3.65,3.79-2.05.03-3.74-1.59-3.79-3.65-.04-2.06,1.6-3.75,3.64-3.78,2.06-.04,3.76,1.6,3.79,3.64ZM496.82,133.19c-2.49.05-4.54-1.94-4.58-4.42-.04-2.49,1.94-4.54,4.42-4.59,2.48-.05,4.53,1.93,4.59,4.42.04,2.49-1.94,4.54-4.43,4.59ZM517.24,165.55c-1.76,1.22-2.89,3.27-2.85,5.56.04,2.09,1.05,3.94,2.6,5.12l-18.51,32.07c-.59-.25-1.24-.38-1.92-.37-2.45.05-4.41,1.9-4.72,4.24h-37.45c-.25-3.48-3.18-6.19-6.69-6.13-.9.02-1.76.21-2.54.56l-18.14-31.6c1.49-1.04,2.46-2.78,2.43-4.75-.03-1.81-.93-3.38-2.26-4.4l19.11-33.09c.59.25,1.23.37,1.91.36,2.31-.04,4.21-1.71,4.66-3.88l38.26.02c.29,2.89,2.74,5.13,5.69,5.08.76-.02,1.49-.18,2.15-.47l18.26,31.68ZM526.45,170.89c.05,3.01-2.35,5.51-5.35,5.56-3.01.06-5.5-2.36-5.55-5.36-.05-3.01,2.35-5.51,5.35-5.56,3.01-.06,5.5,2.35,5.55,5.36ZM569.85,91.79c-3.01.05-5.5-2.35-5.55-5.36-.06-3.01,2.34-5.5,5.35-5.56,3.01-.06,5.5,2.35,5.56,5.36.06,3.01-2.35,5.51-5.35,5.56ZM711.51,254.67c-.03-2.05,1.6-3.75,3.65-3.79,2.05-.04,3.74,1.6,3.78,3.66.04,2.05-1.6,3.75-3.65,3.78-2.04.04-3.75-1.6-3.79-3.65ZM666.42,248.92c3.01-.06,5.5,2.35,5.55,5.36.06,3.01-2.34,5.5-5.35,5.56-3,.05-5.5-2.35-5.55-5.36-.06-3,2.34-5.5,5.35-5.56ZM636.88,213.13c-.05-3.01,2.34-5.5,5.35-5.55,3.01-.06,5.5,2.35,5.55,5.36.06,3-2.34,5.5-5.35,5.55-3,.06-5.5-2.35-5.55-5.36ZM593.57,208.46c2.2-.04,4.04,1.72,4.08,3.93.04,2.21-1.72,4.04-3.93,4.08-2.21.04-4.03-1.72-4.07-3.93-.04-2.21,1.72-4.03,3.92-4.08ZM575.24,170.59c.05,3.01-2.35,5.5-5.36,5.56-3,.06-5.5-2.35-5.55-5.36-.05-3.01,2.35-5.51,5.36-5.56,3-.05,5.5,2.35,5.56,5.36ZM598.19,128.65c.05,2.49-1.93,4.54-4.42,4.59-2.48.04-4.54-1.94-4.58-4.42-.05-2.49,1.93-4.54,4.42-4.59,2.47-.04,4.54,1.94,4.58,4.42ZM642.37,132.35c-2.05.04-3.74-1.6-3.79-3.65-.04-2.05,1.61-3.75,3.65-3.79,2.05-.03,3.74,1.6,3.79,3.66.04,2.04-1.6,3.75-3.65,3.78ZM663.26,166.19c-1.34.95-2.2,2.53-2.17,4.28.03,1.76.96,3.31,2.34,4.21l-18.6,32.23c-.8-.33-1.69-.5-2.61-.49-3.32.06-6.01,2.58-6.42,5.78h-37.03c-.14-2.77-2.43-4.94-5.21-4.89-.72,0-1.38.17-2,.44l-18.18-31.54c1.84-1.2,3.04-3.29,3.01-5.65-.04-2.3-1.26-4.3-3.06-5.45l18.04-31.25c.74.34,1.57.53,2.43.52,2.92-.06,5.26-2.34,5.5-5.19h38.21c.29,2.46,2.37,4.36,4.89,4.31.64-.01,1.25-.15,1.81-.39l19.07,33.09ZM670.24,170.31c.04,2.21-1.72,4.04-3.93,4.08-2.2.03-4.03-1.73-4.07-3.93-.04-2.22,1.72-4.05,3.93-4.09,2.21-.04,4.03,1.72,4.07,3.93ZM715.06,174.59c-2.05.04-3.75-1.6-3.79-3.65-.03-2.05,1.6-3.75,3.65-3.79,2.05-.04,3.74,1.6,3.78,3.66.03,2.05-1.6,3.75-3.65,3.78ZM735.3,207.23c-1.86,1.2-3.08,3.3-3.04,5.67.04,2.3,1.26,4.31,3.06,5.46l-18.31,31.73c-.57-.23-1.21-.35-1.87-.34-2.55.05-4.59,2.07-4.74,4.58h-37.3v-.05c-.06-3.65-3.08-6.56-6.72-6.49-1.09.02-2.12.31-3.01.8l-17.34-30.08c1.78-1.22,2.92-3.27,2.89-5.57-.04-2.28-1.22-4.25-2.98-5.41l18.63-32.28c.55.19,1.14.31,1.76.29,2.49-.05,4.55-1.88,4.97-4.25l38.86.02c.23,2.52,2.36,4.48,4.91,4.43.65,0,1.27-.16,1.84-.39l18.38,31.89ZM744.31,212.68c.05,3.01-2.36,5.5-5.36,5.56-3.01.06-5.5-2.35-5.55-5.36-.06-3,2.34-5.5,5.35-5.56,3-.06,5.5,2.35,5.55,5.36ZM788.16,132.46c-2.05.04-3.75-1.6-3.78-3.65-.04-2.05,1.6-3.75,3.64-3.79,2.05-.03,3.75,1.6,3.78,3.65.04,2.06-1.6,3.75-3.65,3.79ZM880.06,128.79c-.04-2.64,2.06-4.82,4.68-4.87,2.64-.05,4.8,2.06,4.86,4.68.05,2.63-2.05,4.81-4.68,4.85-2.62.05-4.8-2.05-4.86-4.67ZM856,255.18c-.05-2.63,2.05-4.81,4.67-4.85,2.63-.05,4.8,2.06,4.85,4.69.05,2.63-2.05,4.81-4.67,4.85-2.63.05-4.81-2.05-4.85-4.68ZM811.97,251.22c2.05-.03,3.75,1.6,3.79,3.66.03,2.05-1.61,3.75-3.65,3.79-2.05.03-3.75-1.61-3.78-3.65-.04-2.05,1.6-3.76,3.65-3.79ZM792.67,212.49c.05,2.63-2.04,4.81-4.67,4.85-2.63.06-4.81-2.05-4.85-4.68-.05-2.63,2.05-4.81,4.67-4.86,2.63-.04,4.81,2.06,4.85,4.7ZM815.63,170.89c.03,2.06-1.6,3.75-3.65,3.79-2.05.04-3.74-1.6-3.78-3.66-.04-2.05,1.59-3.75,3.64-3.78,2.05-.04,3.75,1.6,3.78,3.65ZM860.86,176.4c-3.01.05-5.49-2.35-5.55-5.36-.06-3.01,2.34-5.5,5.35-5.56,3.01-.06,5.5,2.35,5.55,5.36.06,3.01-2.35,5.5-5.36,5.56ZM881.93,208.96c-1.14.91-1.88,2.31-1.86,3.89.03,1.5.76,2.82,1.83,3.69l-19.06,33.03c-.69-.25-1.42-.4-2.19-.38-2.97.05-5.37,2.3-5.73,5.17h-38.09c-.3-2.45-2.38-4.34-4.89-4.29-.63,0-1.22.16-1.76.38l-19.01-32.96c1.61-1.08,2.68-2.94,2.64-5.02-.03-1.95-1.03-3.64-2.49-4.69l18.68-32.35c.61.27,1.28.42,1.99.41,2.52-.05,4.54-2.03,4.74-4.49h37.45c.22,3.51,3.15,6.26,6.69,6.2.93-.02,1.8-.22,2.59-.59l18.45,32.01ZM888.65,212.7c.04,2.05-1.59,3.75-3.65,3.79-2.05.04-3.75-1.61-3.78-3.65-.04-2.05,1.6-3.75,3.64-3.79,2.05-.04,3.75,1.6,3.79,3.66ZM1026.73,128.86c-.04-2.06,1.6-3.75,3.64-3.79,2.05-.04,3.75,1.6,3.79,3.65.04,2.05-1.6,3.76-3.65,3.79-2.05.04-3.75-1.6-3.78-3.65ZM1002.18,254.84c-.04-2.05,1.6-3.75,3.64-3.78,2.05-.03,3.75,1.6,3.78,3.65.04,2.05-1.59,3.75-3.64,3.78-2.05.04-3.75-1.6-3.78-3.65ZM957.69,248.56c3.47-.06,6.35,2.7,6.41,6.17.06,3.47-2.71,6.35-6.17,6.41-3.47.07-6.35-2.71-6.41-6.18-.06-3.48,2.71-6.35,6.17-6.41ZM938.23,212.84c.04,2.63-2.06,4.81-4.68,4.86-2.63.05-4.81-2.05-4.85-4.68-.05-2.63,2.05-4.81,4.68-4.86,2.63-.05,4.8,2.05,4.86,4.68ZM962.57,170.98c.05,2.63-2.05,4.81-4.67,4.86-2.63.05-4.8-2.06-4.86-4.68-.04-2.63,2.05-4.81,4.68-4.86,2.62-.05,4.8,2.06,4.85,4.68ZM1006.2,176.35c-3,.05-5.49-2.36-5.55-5.36-.06-3.01,2.34-5.5,5.35-5.56,3.01-.06,5.51,2.34,5.56,5.35.05,3.01-2.35,5.5-5.36,5.56ZM1027.12,208.66c-1.31,1.11-2.14,2.76-2.11,4.6.04,1.7.79,3.22,1.97,4.27l-18.98,32.88c-.67-.33-1.41-.52-2.21-.51-2.52.04-4.54,2.02-4.73,4.49h-35.86c-.25-3.95-3.56-7.06-7.55-6.99-1.21.02-2.35.34-3.35.88l-17.56-30.47c1.62-1.08,2.66-2.93,2.62-5.01-.04-2.03-1.09-3.79-2.65-4.83l18.31-31.73c.86.46,1.84.74,2.88.72,3.12-.05,5.6-2.54,5.77-5.61l35.86.02c.26,3.46,3.18,6.16,6.69,6.09.92-.02,1.81-.22,2.6-.58l18.3,31.76ZM1035.69,213.07c.05,2.63-2.05,4.81-4.67,4.86-2.63.04-4.81-2.05-4.85-4.68-.05-2.63,2.05-4.81,4.68-4.86,2.63-.05,4.8,2.05,4.85,4.68ZM1148.17,255.39c-.04-1.89,1.47-3.47,3.37-3.5,1.89-.04,3.46,1.48,3.5,3.37.03,1.89-1.48,3.46-3.37,3.49-1.9.04-3.46-1.48-3.49-3.37ZM1102.75,250.93c2.21-.05,4.03,1.72,4.08,3.93.04,2.21-1.72,4.05-3.93,4.08-2.2.04-4.03-1.73-4.08-3.94-.04-2.2,1.73-4.04,3.93-4.08ZM1084.21,212.87c.06,3.01-2.34,5.51-5.36,5.56-3,.06-5.5-2.35-5.55-5.36-.05-3.01,2.34-5.5,5.35-5.55,3.01-.06,5.5,2.35,5.56,5.36ZM1106.64,170.79c.04,2.06-1.59,3.75-3.65,3.79-2.05.03-3.74-1.61-3.78-3.66-.04-2.06,1.6-3.75,3.65-3.78,2.05-.04,3.75,1.6,3.79,3.65ZM1151.58,175.65c-2.63.05-4.81-2.05-4.85-4.68-.05-2.63,2.05-4.81,4.67-4.86,2.63-.05,4.81,2.06,4.85,4.68.05,2.63-2.05,4.81-4.67,4.86ZM1171.62,206.99c-2.05,1.36-3.39,3.7-3.34,6.33.04,2.46,1.28,4.61,3.14,5.93l-18.33,31.77c-.5-.17-1.02-.28-1.57-.27-2.18.05-3.99,1.63-4.4,3.7h-39.18c-.26-2.66-2.49-4.72-5.2-4.67-.69.01-1.35.17-1.95.42l-18.31-31.78c1.78-1.21,2.92-3.27,2.88-5.58-.04-2.19-1.15-4.12-2.82-5.28l18.58-32.19c.59.24,1.23.36,1.89.35,2.46-.05,4.44-1.92,4.72-4.3h37.91c.29,3.05,2.86,5.43,5.96,5.37.83-.02,1.61-.2,2.32-.52l17.7,30.72ZM1182.01,213.07c.06,3.48-2.71,6.35-6.18,6.41-3.47.07-6.34-2.7-6.4-6.18-.06-3.47,2.71-6.34,6.17-6.41,3.47-.06,6.35,2.71,6.41,6.18Z"/>
                <path class="cls-39" d="M379.93,170.82l-.05-1.15c-.38-2.34-2.43-4.12-4.87-4.07-2.67.05-4.82,2.27-4.76,4.95.03,1.53.78,2.88,1.91,3.74l-18.93,32.53c-.76-.36-1.61-.58-2.51-.56-2.94.06-5.29,2.36-5.5,5.23l-37.34-.14c-.27-2.92-2.73-5.18-5.69-5.13-.8.02-1.56.2-2.25.52l-.99.59c-1.42,1.05-2.34,2.74-2.31,4.64.04,1.84.97,3.45,2.35,4.45l-.52.9-17.75,30.49c-.84-.37-1.77-.56-2.74-.55-3.42.07-6.19,2.73-6.46,6.08l-35.76-.14c-.28-3.45-3.18-6.14-6.68-6.08-.89.02-1.72.21-2.48.54l-17.55-30.71c1.7-1.22,2.79-3.23,2.74-5.46-.04-2.2-1.16-4.12-2.83-5.3l18.48-31.74c.74.36,1.57.57,2.45.56,2.73-.05,4.93-2.11,5.28-4.73l.03-1.23c-.26-2.82-2.64-5.01-5.51-4.95-3.01.05-5.41,2.55-5.35,5.56.03,1.72.87,3.23,2.14,4.21l-18.5,31.77c-.88-.41-1.86-.65-2.9-.63-3.34.06-6.07,2.62-6.43,5.85l-37.14-.14c-.42-2.31-2.44-4.04-4.86-3.99-2.68.04-4.82,2.27-4.77,4.94.03,1.49.73,2.79,1.8,3.66l.97.62c.66.32,1.4.51,2.18.5,2.56-.05,4.6-2.07,4.74-4.6l37.05.16c.21,3.51,3.15,6.27,6.7,6.21.95-.02,1.83-.24,2.64-.61l17.54,30.68c-1.78,1.22-2.93,3.27-2.89,5.57.04,2.21,1.16,4.15,2.86,5.32l-18.24,31.34c-.8-.4-1.69-.65-2.64-.63-2.9.05-5.23,2.31-5.49,5.14v1.15c.34,2.86,2.76,5.06,5.7,5.01,3.11-.05,5.6-2.64,5.55-5.76-.03-1.75-.88-3.28-2.16-4.3l18.26-31.38c.88.4,1.85.63,2.87.61,3.39-.07,6.14-2.69,6.45-5.99l35.77.14c.32,3.41,3.22,6.05,6.68,5.99.86-.02,1.68-.2,2.44-.52l17.62,30.84c-1.81,1.2-2.99,3.28-2.94,5.61.04,2.15,1.11,4.04,2.72,5.21l-18.53,31.85c-.61-.27-1.29-.41-2-.4-2.68.05-4.82,2.27-4.77,4.95.05,2.68,2.27,4.83,4.95,4.77.62,0,1.2-.15,1.74-.37l1-.54c1.25-.91,2.06-2.38,2.02-4.04-.02-1.56-.8-2.93-1.97-3.8l18.53-31.82c.91.44,1.94.69,3.02.68,3.47-.06,6.27-2.82,6.46-6.23l34.65.14c.29,3.9,3.58,6.95,7.54,6.88,1.1-.01,2.12-.28,3.05-.72l18.01,31.51c-1.29.89-2.14,2.4-2.1,4.1.03,1.57.81,2.94,1.98,3.81l.99.58c.61.25,1.28.4,1.98.39,2.68-.05,4.82-2.27,4.77-4.96-.05-2.69-2.27-4.83-4.95-4.78-.59.01-1.13.14-1.65.34l-18.03-31.57c2-1.37,3.3-3.68,3.26-6.29-.04-2.5-1.33-4.69-3.26-6.01l18.22-31.3c.67.32,1.4.51,2.18.49,2.46-.05,4.43-1.92,4.72-4.3v-1.14c-.3-2.45-2.38-4.34-4.9-4.28-.66,0-1.28.16-1.84.4l-19.09-33.4c1.51-1.04,2.48-2.79,2.44-4.75-.03-1.8-.93-3.37-2.26-4.38l18.93-32.52c.63.28,1.32.44,2.05.43,2.54-.05,4.55-2.03,4.74-4.5ZM374.44,334.76c2.04-.04,3.74,1.59,3.78,3.66.04,2.04-1.6,3.74-3.65,3.78-2.05.03-3.74-1.61-3.79-3.66-.04-2.05,1.6-3.75,3.65-3.78ZM281.33,337.86c.03,2.06-1.61,3.75-3.65,3.78-2.05.03-3.75-1.59-3.79-3.64-.04-2.06,1.6-3.76,3.65-3.79,2.05-.04,3.74,1.6,3.79,3.65ZM209.2,295.43c.04,2.48-1.94,4.54-4.43,4.58-2.47.05-4.53-1.94-4.58-4.42-.05-2.48,1.94-4.54,4.42-4.59,2.48-.05,4.54,1.94,4.59,4.43ZM160.45,211.5c.04,2.05-1.59,3.75-3.65,3.79-2.05.03-3.75-1.6-3.78-3.66-.04-2.05,1.6-3.75,3.65-3.79,2.05-.03,3.74,1.6,3.78,3.66ZM225.46,169.62c-.04-2.38,1.86-4.35,4.23-4.39,2.38-.05,4.35,1.86,4.39,4.24.04,2.38-1.86,4.34-4.23,4.4-2.38.04-4.35-1.86-4.39-4.24ZM205.29,217.05c-3,.06-5.5-2.35-5.55-5.36-.06-3.01,2.34-5.51,5.35-5.56,3-.06,5.5,2.35,5.55,5.36.05,3-2.34,5.5-5.35,5.56ZM234.65,253.63c.05,3.01-2.35,5.49-5.36,5.55-3.01.06-5.49-2.36-5.55-5.36-.06-3.01,2.35-5.5,5.35-5.56,3.01-.06,5.5,2.35,5.56,5.36ZM371.33,254.48c-.04-2.05,1.6-3.75,3.66-3.78,2.05-.03,3.74,1.59,3.78,3.65.04,2.05-1.6,3.75-3.65,3.78-2.06.04-3.76-1.6-3.79-3.65ZM344.27,296.35c-.06-3.47,2.71-6.34,6.18-6.41,3.47-.06,6.34,2.71,6.41,6.18.06,3.46-2.7,6.34-6.17,6.41-3.47.06-6.34-2.71-6.41-6.18ZM301.82,290.82c3.01-.05,5.5,2.35,5.56,5.36.06,3.01-2.35,5.51-5.36,5.56-3.01.06-5.5-2.34-5.56-5.35-.05-3.01,2.35-5.51,5.35-5.56ZM283.55,253.77c.06,3-2.35,5.5-5.35,5.56-3,.05-5.5-2.35-5.55-5.36-.06-3.01,2.35-5.5,5.36-5.56,3.01-.05,5.5,2.35,5.55,5.36ZM306.78,211.79c.04,2.49-1.94,4.54-4.42,4.59-2.48.05-4.54-1.93-4.59-4.42-.04-2.49,1.94-4.55,4.43-4.59,2.47-.04,4.54,1.95,4.58,4.43ZM345.25,212.64c.36,2.81,2.77,4.96,5.67,4.91.7,0,1.36-.16,1.98-.41l19.13,33.47c-1.14.91-1.88,2.31-1.85,3.88.03,1.49.74,2.79,1.8,3.67l-18.24,31.35c-1.01-.48-2.13-.75-3.32-.73-3.83.07-6.94,3.05-7.26,6.79l-34.7-.14c-.42-3.3-3.27-5.83-6.66-5.76-.9.01-1.76.21-2.53.55l-17.61-30.81c1.86-1.2,3.08-3.3,3.03-5.67-.04-2.26-1.22-4.23-2.97-5.39l18.24-31.35c.74.33,1.56.53,2.42.52,2.87-.05,5.17-2.25,5.48-5.03l37.38.15ZM355.32,211.83c.04,2.49-1.94,4.54-4.42,4.59-2.48.05-4.54-1.94-4.58-4.43-.05-2.48,1.94-4.54,4.42-4.58,2.48-.05,4.54,1.94,4.58,4.42ZM378.82,170.4c.04,2.05-1.6,3.75-3.65,3.78-2.04.04-3.74-1.6-3.78-3.65-.04-2.06,1.6-3.76,3.64-3.79,2.05-.04,3.75,1.6,3.79,3.65Z"/>
              </g>
              <g>
                <g>
                  <path class="cls-32" d="M983.89,212.95c5.49-4.97,10.88-10.35,10.88-20.56h-2.15c0,9.39-4.92,14.22-10.34,19.11-5.41-4.89-10.34-9.72-10.34-19.11h-2.15c0,10.21,5.39,15.59,10.89,20.56-5.5,4.98-10.89,10.35-10.89,20.56h2.15c0-9.39,4.93-14.22,10.34-19.11,5.42,4.89,10.34,9.72,10.34,19.11h2.15c0-10.21-5.39-15.58-10.88-20.56Z"/>
                  <path class="cls-40" d="M989.35,224.38c0,.37-.34.67-.76.67h-12.59c-.42,0-.76-.3-.76-.67s.34-.67.76-.67h12.59c.42,0,.76.3.76.67Z"/>
                  <path class="cls-42" d="M991.2,229.51c0,.37-.34.67-.76.67h-16.3c-.42,0-.76-.3-.76-.67s.34-.67.76-.67h16.3c.42,0,.76.3.76.67Z"/>
                  <path class="cls-36" d="M985.62,219.23c0,.37-.35.67-.76.67h-5.15c-.42,0-.76-.3-.76-.67s.34-.67.76-.67h5.15c.42,0,.76.3.76.67Z"/>
                  <path class="cls-41" d="M974.17,195.61h16.24c.42,0,.76.34.76.76v.04c0,.42-.34.76-.76.76h-16.24c-.42,0-.76-.34-.76-.76v-.04c0-.42.34-.76.76-.76Z"/>
                  <path class="cls-48" d="M989.35,201.53c0,.37-.34.67-.76.67h-12.61c-.42,0-.76-.3-.76-.67s.34-.67.76-.67h12.61c.42,0,.76.3.76.67Z"/>
                  <path class="cls-47" d="M985.62,206.67c0,.37-.34.67-.76.67h-5.15c-.42,0-.76-.3-.76-.67s.34-.67.76-.67h5.15c.42,0,.76.3.76.67Z"/>
                </g>
                <g>
                  <path class="cls-46" d="M828.44,211.93c.24,0,.47.11.6.31l1.85,2.64.65-2.41,2.3-8.62c.08-.32.38-.55.71-.55s.63.23.71.55l3.89,14.58,1.59-5.96,1.05-3.92c.07-.27.3-.48.58-.53.28-.05.57.07.73.3l2.55,3.61h10.06c2.01-4.44,1.2-9.84-2.45-13.49-4.7-4.7-12.31-4.7-17.01,0-4.7-4.7-12.31-4.7-17.01,0-3.64,3.65-4.46,9.06-2.44,13.49h11.61Z"/>
                  <path class="cls-45" d="M845.29,213.4c-.24,0-.47-.11-.6-.31l-1.87-2.64-.64,2.4-2.3,8.62c-.08.33-.38.55-.71.55s-.62-.22-.71-.55l-3.9-14.58-1.59,5.96-1.07,3.92c-.07.27-.3.48-.58.53-.28.05-.57-.07-.73-.3l-2.54-3.61h-10.43c.46.73,1.01,1.42,1.64,2.06l17.01,17.02,17.01-17.02c.64-.64,1.18-1.33,1.64-2.06h-9.64Z"/>
                </g>
                <path class="cls-34" d="M1147.52,207.46c-2.09,0-3.83,1.54-4.12,3.55h-8.56c-.31-2.63-2.54-4.67-5.25-4.67-.82,0-1.59.19-2.27.52l-4.76-8.24c.76-.58,1.25-1.5,1.25-2.52,0-1.76-1.43-3.19-3.18-3.19s-3.18,1.43-3.18,3.19,1.43,3.18,3.18,3.18c.43,0,.84-.08,1.22-.24l4.76,8.24c-1.39.95-2.3,2.55-2.3,4.36,0,1.66.76,3.14,1.96,4.11l-2.98,5.16c-.82-.35-1.72-.54-2.66-.54-3.77,0-6.81,3.05-6.81,6.82s3.05,6.82,6.81,6.82,6.81-3.05,6.81-6.82c0-2.22-1.07-4.2-2.71-5.44l2.97-5.16c.59.22,1.23.35,1.89.35,2.71,0,4.94-2.04,5.25-4.67h8.56c.3,2.01,2.03,3.55,4.12,3.55,2.3,0,4.17-1.87,4.17-4.17s-1.87-4.18-4.17-4.18Z"/>
                <g>
                  <path class="cls-33" d="M480.13,176.74c-1.98,1.92-4.66,3.1-7.63,3.1s-5.66-1.18-7.64-3.1c-7.75,1.35-13.25,5.24-13.25,14.09h41.76c0-8.85-5.49-12.74-13.25-14.09Z"/>
                  <path class="cls-50" d="M461.79,162.91c-.19.8-.29,1.63-.29,2.5,0,6.08,4.92,11,10.99,11s10.99-4.92,10.99-11c0-.86-.1-1.69-.29-2.5h-21.41Z"/>
                  <g>
                    <path class="cls-49" d="M478.46,149.75h-11.93c-3.26,0-5.93,2.67-5.93,5.94l1.2,5.97h21.39l1.21-5.97c0-3.27-2.67-5.94-5.94-5.94ZM472.49,160.38c-2.58,0-4.67-2.09-4.67-4.68s2.09-4.68,4.67-4.68,4.67,2.1,4.67,4.68-2.09,4.68-4.67,4.68Z"/>
                    <path class="cls-44" d="M475.53,154.55h-1.88v-1.88c0-.25-.2-.46-.46-.46h-1.38c-.25,0-.46.21-.46.46v1.88h-1.89c-.25,0-.45.21-.45.46v1.39c0,.25.2.46.45.46h1.89v1.88c0,.25.2.46.46.46h1.38c.25,0,.46-.21.46-.46v-1.88h1.88c.25,0,.46-.21.46-.46v-1.39c0-.25-.2-.46-.46-.46Z"/>
                  </g>
                </g>
                <path class="cls-43" d="M1430.17,294.57c3.05-5.27,1.23-12.06-4.04-15.11-5.28-3.05-12.05-1.23-15.09,4.05-2.82,4.86-1.49,11.01,2.88,14.33l-1.71,2.98-.73-.43s-.1-.01-.12.03l-7.55,13.11s-.01.1.03.12l3.87,2.24s.1,0,.13-.03l7.55-13.11s0-.1-.03-.12l-.73-.43,1.72-2.97c5.05,2.13,11.03.2,13.84-4.67ZM1413.44,284.91c2.27-3.94,7.34-5.3,11.29-3.02,3.94,2.28,5.3,7.34,3.02,11.29-2.28,3.95-7.35,5.31-11.28,3.03-3.95-2.28-5.3-7.34-3.03-11.3Z"/>
                <polygon class="cls-28" points="624.61 164.06 624.61 150.68 611.23 150.68 611.23 164.06 597.87 164.06 597.87 177.44 611.23 177.44 611.23 190.83 624.61 190.83 624.61 177.44 637.97 177.44 637.97 164.06 624.61 164.06"/>
                <path class="cls-29" d="M168.98,162.79v4.95h-3.65s0-.98,0-.98c0-.24-.2-.44-.44-.44s-.44.19-.44.44v7.06c0,.24.2.44.44.44s.44-.2.44-.44v-.97s3.65,0,3.65,0v4.94c0,.25.2.44.44.44s.44-.2.44-.44v-1.39h23.48s7.46-5.75,7.46-5.75l10.29-.18c.24,0,.44-.09.44-.19s-.2-.19-.44-.19l-10.29-.18-7.46-5.74h-23.48v-1.39c0-.24-.2-.43-.44-.43s-.44.2-.44.43ZM192.47,175.7h-21.73v-10.82h1.61v5.05h.74s0-5.05,0-5.05h1.48v2.41h.74v-2.41h1.48v5.05h.74v-5.05h1.48v2.41h.74v-2.41s1.48,0,1.48,0v5.05h.74v-5.05h1.48v2.41h.74v-2.41h1.48v5.05h.74v-5.05h1.48v2.41h.74v-2.41h1.49v5.05h.74v-5.05h1.61v10.82Z"/>
                <g>
                  <polygon class="cls-27" points="328.83 253.2 328.83 249.2 324.84 249.2 324.84 253.2 320.84 253.2 320.84 257.2 324.84 257.2 324.84 261.2 328.83 261.2 328.83 257.2 332.83 257.2 332.83 253.2 328.83 253.2"/>
                  <path class="cls-25" d="M326.83,244.77c-5.74,0-10.42,4.68-10.42,10.42s4.67,10.43,10.42,10.43,10.42-4.68,10.42-10.43-4.67-10.42-10.42-10.42ZM326.83,264.48c-5.12,0-9.27-4.15-9.27-9.28s4.15-9.28,9.27-9.28,9.27,4.16,9.27,9.28-4.15,9.28-9.27,9.28Z"/>
                  <path class="cls-24" d="M342.34,241.81h-31.01c-2.77,0-5.04,2.27-5.04,5.04v16.7c0,2.77,2.27,5.04,5.04,5.04h31.01c2.77,0,5.03-2.27,5.03-5.04v-16.7c0-2.77-2.26-5.04-5.03-5.04ZM326.83,266.07c-5.99,0-10.86-4.88-10.86-10.87s4.87-10.87,10.86-10.87,10.86,4.88,10.86,10.87-4.87,10.87-10.86,10.87Z"/>
                  <path class="cls-31" d="M318.18,241.18v-.22c0-2.17,1.76-3.93,3.92-3.93h9.47c2.16,0,3.92,1.76,3.92,3.93v.22h2.22v-.22c0-3.4-2.76-6.16-6.15-6.16h-9.47c-3.39,0-6.14,2.76-6.14,6.16v.22h2.22Z"/>
                </g>
                <g>
                  <polygon class="cls-30" points="1275.57 216.56 1275.57 212.66 1271.67 212.66 1271.67 216.56 1267.77 216.56 1267.77 220.45 1271.67 220.45 1271.67 224.35 1275.57 224.35 1275.57 220.45 1279.46 220.45 1279.46 216.56 1275.57 216.56"/>
                  <path class="cls-23" d="M1280.47,194.39c0-.83-.68-1.52-1.51-1.52h-10.68c-.83,0-1.51.69-1.51,1.52v4.46c0,.83.68,1.51,1.51,1.51h10.68c.84,0,1.51-.69,1.51-1.51v-4.46Z"/>
                  <path class="cls-22" d="M1273.61,208.94c-5.27,0-9.56,4.29-9.56,9.56s4.29,9.57,9.56,9.57,9.56-4.29,9.56-9.57-4.29-9.56-9.56-9.56ZM1273.62,226.95c-4.66,0-8.44-3.77-8.44-8.44s3.77-8.44,8.44-8.44,8.44,3.78,8.44,8.44-3.78,8.44-8.44,8.44Z"/>
                  <path class="cls-26" d="M1279.47,203.03h-.16v-1.7h-11.4v1.7h-.16c-4.14,0-7.5,3.36-7.5,7.5v15.95c0,4.15,3.36,7.51,7.5,7.51h11.71c4.14,0,7.5-3.36,7.5-7.51v-15.95c0-4.14-3.36-7.5-7.5-7.5ZM1273.61,228.55c-5.53,0-10.03-4.5-10.03-10.05s4.5-10.04,10.03-10.04,10.03,4.5,10.03,10.04-4.5,10.05-10.03,10.05Z"/>
                </g>
              </g>
            </g>
          </g>
        </g>
      </g>
    </g>
  </g>
</svg>