<?xml version="1.0" encoding="UTF-8"?>
<svg id="Layer_2" data-name="Layer 2" xmlns="http://www.w3.org/2000/svg" viewBox="0 0 67 96">
  <defs>
    <style>
      .cls-1 {
        fill: #1f9bb8;
      }

      .cls-2 {
        fill: none;
        stroke: #fff;
        stroke-linecap: round;
        stroke-linejoin: round;
        stroke-width: 2px;
      }
    </style>
  </defs>
  <g id="STAGE-1">
    <circle class="cls-1" cx="33.5" cy="73.5" r="22.5"/>
    <path class="cls-2" d="M54.9,54.91l-7.62-7.62M54.9,12.1l-7.62,7.62M12.1,54.91l7.62-7.62M12.1,12.1l7.62,7.62M22.67,49.71v-3.21c0-5.98,4.85-10.83,10.83-10.83s10.83,4.86,10.83,10.83v3.21c-3.1,2.08-6.83,3.29-10.83,3.29s-7.73-1.21-10.83-3.29ZM59.5,66c-3.59,0-6.5-2.91-6.5-6.5s2.91-6.5,6.5-6.5,6.5,2.91,6.5,6.5-2.91,6.5-6.5,6.5ZM59.5,1c-3.59,0-6.5,2.91-6.5,6.5s2.91,6.5,6.5,6.5,6.5-2.91,6.5-6.5-2.91-6.5-6.5-6.5ZM7.5,66c3.59,0,6.5-2.91,6.5-6.5s-2.91-6.5-6.5-6.5-6.5,2.91-6.5,6.5,2.91,6.5,6.5,6.5ZM7.5,1c3.59,0,6.5,2.91,6.5,6.5s-2.91,6.5-6.5,6.5S1,11.09,1,7.5,3.91,1,7.5,1ZM33.5,14c10.76,0,19.5,8.74,19.5,19.5s-8.74,19.5-19.5,19.5-19.5-8.74-19.5-19.5,8.74-19.5,19.5-19.5ZM33.5,22.67c3.59,0,6.5,2.91,6.5,6.5s-2.91,6.5-6.5,6.5-6.5-2.91-6.5-6.5,2.91-6.5,6.5-6.5Z"/>
  </g>
</svg>