<?xml version="1.0" encoding="UTF-8"?>
<svg id="Layer_2" data-name="Layer 2" xmlns="http://www.w3.org/2000/svg" viewBox="0 0 67 80.22">
  <defs>
    <style>
      .cls-1 {
        fill: #f9be13;
      }

      .cls-2 {
        fill: none;
        stroke: #333232;
        stroke-linecap: round;
        stroke-linejoin: round;
        stroke-width: 2px;
      }
    </style>
  </defs>
  <g id="PANEL">
    <g id="OBIECTIVE_wide">
      <g id="obiective_icon">
        <g id="grup_tinta_icon">
          <circle class="cls-1" cx="33.39" cy="22.5" r="22.5"/>
        </g>
        <path class="cls-2" d="M54.9,68.13l-7.62-7.62M54.9,25.32l-7.62,7.62M12.1,68.13l7.62-7.62M12.1,25.32l7.62,7.62M22.67,62.93v-3.21c0-5.98,4.85-10.83,10.83-10.83s10.83,4.86,10.83,10.83v3.21c-3.1,2.08-6.83,3.29-10.83,3.29s-7.73-1.21-10.83-3.29ZM59.5,79.22c-3.59,0-6.5-2.91-6.5-6.5s2.91-6.5,6.5-6.5,6.5,2.91,6.5,6.5-2.91,6.5-6.5,6.5ZM59.5,14.22c-3.59,0-6.5,2.91-6.5,6.5s2.91,6.5,6.5,6.5,6.5-2.91,6.5-6.5-2.91-6.5-6.5-6.5ZM7.5,79.22c3.59,0,6.5-2.91,6.5-6.5s-2.91-6.5-6.5-6.5-6.5,2.91-6.5,6.5,2.91,6.5,6.5,6.5ZM7.5,14.22c3.59,0,6.5,2.91,6.5,6.5s-2.91,6.5-6.5,6.5-6.5-2.91-6.5-6.5,2.91-6.5,6.5-6.5ZM33.5,27.22c10.76,0,19.5,8.74,19.5,19.5s-8.74,19.5-19.5,19.5-19.5-8.74-19.5-19.5,8.74-19.5,19.5-19.5ZM33.5,35.89c3.59,0,6.5,2.91,6.5,6.5s-2.91,6.5-6.5,6.5-6.5-2.91-6.5-6.5,2.91-6.5,6.5-6.5Z"/>
      </g>
    </g>
  </g>
</svg>