<?xml version="1.0" encoding="UTF-8"?>
<svg id="Layer_2" data-name="Layer 2" xmlns="http://www.w3.org/2000/svg" viewBox="0 0 100 100">
  <defs>
    <style>
      .cls-1 {
        fill: #08272e;
      }

      .cls-2 {
        fill: none;
        stroke: #fff;
        stroke-linecap: round;
        stroke-linejoin: round;
        stroke-width: 1.3px;
      }
    </style>
  </defs>
  <g id="STAGE-2">
    <g id="PACKS_wide">
      <g id="PACKS">
        <g id="PACK_CONFERINTA">
          <g id="pack_conferinta_icon">
            <circle class="cls-1" cx="50" cy="50" r="50"/>
            <g id="g1644">
              <g id="g1646">
                <g id="g1648">
                  <g id="g1654">
                    <path id="path1656" class="cls-2" d="M35.42,66.7h-4.17c-3.45,0-6.25,2.79-6.25,6.22v2.07h16.67v-2.07c0-3.44-2.8-6.22-6.25-6.22Z"/>
                  </g>
                  <g id="g1658">
                    <path id="path1660" class="cls-2" d="M52.08,66.7h-4.17c-3.45,0-6.25,2.79-6.25,6.22v2.07h16.67v-2.07c0-3.44-2.8-6.22-6.25-6.22Z"/>
                  </g>
                  <g id="g1662">
                    <path id="path1664" class="cls-2" d="M68.75,66.7h-4.17c-3.45,0-6.25,2.79-6.25,6.22v2.07h16.67v-2.07c0-3.44-2.8-6.22-6.25-6.22Z"/>
                  </g>
                  <g id="g1666">
                    <path id="path1668" class="cls-2" d="M38.54,61.51c0,2.86-2.33,5.19-5.21,5.19s-5.21-2.32-5.21-5.19,2.33-5.19,5.21-5.19,5.21,2.32,5.21,5.19Z"/>
                  </g>
                  <g id="g1670">
                    <path id="path1672" class="cls-2" d="M55.21,61.51c0,2.86-2.33,5.19-5.21,5.19s-5.21-2.32-5.21-5.19,2.33-5.19,5.21-5.19,5.21,2.32,5.21,5.19Z"/>
                  </g>
                  <g id="g1674">
                    <path id="path1676" class="cls-2" d="M71.88,61.51c0,2.86-2.33,5.19-5.21,5.19s-5.21-2.32-5.21-5.19,2.33-5.19,5.21-5.19,5.21,2.32,5.21,5.19Z"/>
                  </g>
                  <g id="g1678">
                    <path id="path1680" class="cls-2" d="M52.08,35.37h-4.17c-3.45,0-6.25,2.79-6.25,6.22v2.07h16.67v-2.07c0-3.44-2.8-6.22-6.25-6.22Z"/>
                  </g>
                  <g id="g1682">
                    <path id="path1684" class="cls-2" d="M55.21,30.19c0,2.86-2.33,5.19-5.21,5.19s-5.21-2.32-5.21-5.19,2.33-5.19,5.21-5.19,5.21,2.32,5.21,5.19Z"/>
                  </g>
                  <g id="g1686">
                    <path id="path1688" class="cls-2" d="M33.33,43.67h33.33"/>
                  </g>
                  <g id="g1690">
                    <path id="path1692" class="cls-2" d="M63.54,43.67v-6.22l-2.08-2.07"/>
                  </g>
                  <g id="g1694">
                    <path id="path1696" class="cls-2" d="M64.58,56.76v-13.09h-29.17v13.09"/>
                  </g>
                </g>
              </g>
            </g>
          </g>
        </g>
      </g>
    </g>
  </g>
</svg>