<?xml version="1.0" encoding="UTF-8"?>
<svg id="Layer_2" data-name="Layer 2" xmlns="http://www.w3.org/2000/svg" viewBox="0 0 67.25 67.25">
  <defs>
    <style>
      .cls-1 {
        stroke-linecap: square;
      }

      .cls-1, .cls-2 {
        fill: none;
        stroke: #fff;
        stroke-miterlimit: 13.33;
        stroke-width: .87px;
      }

      .cls-3 {
        fill: #f16822;
      }
    </style>
  </defs>
  <g id="STAGE-1">
    <g id="PACKS_mobile">
      <g id="PACK_ONLINE">
        <g id="pack_online_icon">
          <circle class="cls-3" cx="33.63" cy="33.63" r="33.63"/>
          <g id="g2655">
            <g id="g2657">
              <g id="g2659">
                <g id="g2665">
                  <path id="path2667" class="cls-1" d="M24.46,19.87h-5.81c-1.69,0-3.06,1.37-3.06,3.06v18.34c0,1.69,1.37,3.06,3.06,3.06h29.96c1.69,0,3.06-1.37,3.06-3.06v-18.34c0-1.69-1.37-3.06-3.06-3.06h-5.81"/>
                </g>
                <g id="g2669">
                  <path id="path2671" class="cls-1" d="M33.63,29.04v9.17"/>
                </g>
                <g id="g2673">
                  <path id="path2675" class="cls-2" d="M27.51,32.1c0,1.69-1.37,3.06-3.06,3.06s-3.06-1.37-3.06-3.06,1.37-3.06,3.06-3.06,3.06,1.37,3.06,3.06Z"/>
                </g>
                <g id="g2677">
                  <path id="path2679" class="cls-2" d="M36.68,19.87c0,1.69-1.37,3.06-3.06,3.06s-3.06-1.37-3.06-3.06,1.37-3.06,3.06-3.06,3.06,1.37,3.06,3.06Z"/>
                </g>
                <g id="g2681">
                  <path id="path2683" class="cls-1" d="M27.51,44.32h-6.11v-3.06c0-1.69,1.37-3.06,3.06-3.06s3.06,1.37,3.06,3.06v3.06Z"/>
                </g>
                <g id="g2685">
                  <path id="path2687" class="cls-2" d="M45.85,32.1c0,1.69-1.37,3.06-3.06,3.06s-3.06-1.37-3.06-3.06,1.37-3.06,3.06-3.06,3.06,1.37,3.06,3.06Z"/>
                </g>
                <g id="g2689">
                  <path id="path2691" class="cls-1" d="M45.85,44.32h-6.11v-3.06c0-1.69,1.37-3.06,3.06-3.06s3.06,1.37,3.06,3.06v3.06Z"/>
                </g>
                <g id="g2693">
                  <path id="path2695" class="cls-2" d="M30.57,44.32v3.06c0,1.69-1.37,3.06-3.06,3.06h-1.53"/>
                </g>
                <g id="g2697">
                  <path id="path2699" class="cls-2" d="M41.27,50.44h-1.53c-1.69,0-3.06-1.37-3.06-3.06v-3.06"/>
                </g>
                <g id="g2701">
                  <path id="path2703" class="cls-2" d="M27.51,50.44h12.84"/>
                </g>
              </g>
            </g>
          </g>
        </g>
      </g>
    </g>
  </g>
</svg>