<?xml version="1.0" encoding="UTF-8"?>
<svg id="Layer_2" data-name="Layer 2" xmlns="http://www.w3.org/2000/svg" viewBox="0 0 67 80.22">
  <defs>
    <style>
      .cls-1 {
        fill: #f9be13;
      }

      .cls-2 {
        fill: none;
        stroke: #333232;
        stroke-linecap: round;
        stroke-linejoin: round;
        stroke-width: 2px;
      }
    </style>
  </defs>
  <g id="CURS-MED">
    <circle class="cls-1" cx="33.5" cy="22.5" r="22.5"/>
    <polyline class="cls-2" points="53.55 25.15 66 25.15 66 79.22 22.83 79.22 22.83 57.85"/>
    <line class="cls-2" x1="47.68" y1="46.72" x2="56.62" y2="46.72"/>
    <path class="cls-2" d="M2.9,65.58h0c-2.53-2.53-2.53-6.63,0-9.15l9.25-9.25,9.15,9.15-9.25,9.25c-2.53,2.53-6.63,2.53-9.15,0Z"/>
    <polyline class="cls-2" points="17.74 38.53 10.62 45.65 22.83 57.85 29.95 50.73"/>
    <circle class="cls-2" cx="35.84" cy="32.63" r="18.41"/>
    <circle class="cls-2" cx="35.84" cy="29.78" r="6.59"/>
    <path class="cls-2" d="M26.36,47.43v-1.58c0-5.24,4.25-9.48,9.48-9.48s9.48,4.25,9.48,9.48v1.58"/>
    <line class="cls-2" x1="32.21" y1="59.67" x2="56.62" y2="59.67"/>
    <line class="cls-2" x1="32.21" y1="68.3" x2="56.62" y2="68.3"/>
  </g>
</svg>