<?xml version="1.0" encoding="UTF-8"?>
<svg id="Layer_2" data-name="Layer 2" xmlns="http://www.w3.org/2000/svg" viewBox="0 0 27.78 26">
  <defs>
    <style>
      .cls-1 {
        fill: none;
        stroke: #fff;
        stroke-linecap: round;
        stroke-linejoin: round;
      }
    </style>
  </defs>
  <g id="STAGE-1">
    <path id="path4227" class="cls-1" d="M8.06,7.65c-1.3,1.3-3.41,1.3-4.71,0-.65-.65-1.71-.65-2.36,0-.65.65-.65,1.71,0,2.36,2.6,2.6,6.82,2.6,9.43,0l-2.36-2.36Z"/>
    <path id="path4231" class="cls-1" d="M12.22,18.83c0,.92-.75,1.67-1.67,1.67s-1.67-.75-1.67-1.67.75-1.67,1.67-1.67,1.67.75,1.67,1.67Z"/>
    <path id="path4235" class="cls-1" d="M18.89,18.83c0,.92-.75,1.67-1.67,1.67s-1.67-.75-1.67-1.67.75-1.67,1.67-1.67,1.67.75,1.67,1.67Z"/>
    <path id="path4239" class="cls-1" d="M25.56,18.83c0,.92-.75,1.67-1.67,1.67s-1.67-.75-1.67-1.67.75-1.67,1.67-1.67,1.67.75,1.67,1.67Z"/>
    <path id="path4243" class="cls-1" d="M13.89,25.5h-6.72c0-1.83,1.56-3.33,3.39-3.33s3.33,1.5,3.33,3.33Z"/>
    <path id="path4247" class="cls-1" d="M20.56,25.5h-6.67c0-1.83,1.5-3.33,3.33-3.33s3.33,1.5,3.33,3.33Z"/>
    <path id="path4251" class="cls-1" d="M27.28,25.5h-6.72c0-1.83,1.5-3.33,3.33-3.33s3.39,1.5,3.39,3.33Z"/>
    <path id="path4255" class="cls-1" d="M3.83,3.83c0,.92-.75,1.67-1.67,1.67s-1.67-.75-1.67-1.67.75-1.67,1.67-1.67,1.67.75,1.67,1.67Z"/>
    <path id="path4259" class="cls-1" d="M3.83,11.7v13.8H.5V8.83"/>
    <path id="path4263" class="cls-1" d="M7.17,8.29V.5h20.11v13.33H7.17v-2.03"/>
    <path id="path4267" class="cls-1" d="M9.04,8.63l4.8-4.8"/>
    <path id="path4271" class="cls-1" d="M23.06,4.67l-4.17,4.17-1.67-1.67-3.33,3.33"/>
    <path id="path4275" class="cls-1" d="M19.72,4.67h3.33v3.33"/>
    <path id="path4279" class="cls-1" d="M.5,15.5h3.33"/>
  </g>
</svg>