<?xml version="1.0" encoding="UTF-8"?>
<svg id="Layer_2" data-name="Layer 2" xmlns="http://www.w3.org/2000/svg" viewBox="0 0 30.42 26">
  <defs>
    <style>
      .cls-1 {
        fill: none;
        stroke: #fff;
        stroke-linecap: round;
        stroke-linejoin: round;
      }
    </style>
  </defs>
  <g id="STAGE-1">
    <path class="cls-1" d="M13.2,4.09h9.53c1.41,0,2.56-1.14,2.56-2.56V.5h-13.16L3.63,5.78H.5v6.66h5.19c.76,0,1.5-.23,2.13-.65l6.66-4.53c.81-.55,1.01-1.66.44-2.45h0c-.54-.75-1.58-.95-2.36-.44l-4.31,2.82"/>
    <path class="cls-1" d="M29.92,25.5H10.31v-2.03c.64-.64,1-1,1.65-1.65h16.31l1.65,1.65v2.03h0Z"/>
    <path class="cls-1" d="M28.24,21.81H11.99v-1.85c0-4.33,3.51-7.83,7.83-7.83h.58c4.33,0,7.83,3.51,7.83,7.83v1.85Z"/>
    <line class="cls-1" x1="20.11" y1="12.13" x2="20.11" y2="9.04"/>
    <line class="cls-1" x1="17.42" y1="8.69" x2="22.81" y2="8.69"/>
  </g>
</svg>