<?xml version="1.0" encoding="UTF-8"?>
<svg id="Layer_2" data-name="Layer 2" xmlns="http://www.w3.org/2000/svg" viewBox="0 0 67 80.22">
  <defs>
    <style>
      .cls-1 {
        fill: #f9be13;
      }

      .cls-2 {
        fill: none;
        stroke: #333232;
        stroke-linecap: round;
        stroke-linejoin: round;
        stroke-width: 2px;
      }
    </style>
  </defs>
  <g id="PANEL">
    <g id="GRUP_TINTA_wide" data-name="GRUP TINTA_wide">
      <g id="grup_tinta_icon">
        <circle class="cls-1" cx="29.06" cy="22.5" r="22.5"/>
        <g>
          <g>
            <path class="cls-2" d="M64.03,62.36l-8.98,9.03-4.75-4.78M29.02,61.94c3.51,0,6.35,2.86,6.35,6.39s-2.84,6.39-6.35,6.39-6.35-2.86-6.35-6.39,2.84-6.39,6.35-6.39ZM7.35,61.94c3.51,0,6.35,2.86,6.35,6.39s-2.84,6.39-6.35,6.39-6.35-2.86-6.35-6.39,2.84-6.39,6.35-6.39ZM29.02,14.22c4.55,0,8.23,3.82,8.23,8.53s-3.69,8.53-8.23,8.53-8.23-3.82-8.23-8.53,3.69-8.53,8.23-8.53ZM29.02,31.98c7.17,0,12.99,6.02,12.99,13.45v4h-25.98v-4c0-7.43,5.81-13.45,12.99-13.45Z"/>
            <path class="cls-2" d="M47.51,60.62c4.23-4.26,11.09-4.26,15.32,0,4.23,4.25,4.23,11.15,0,15.41-4.23,4.26-11.09,4.26-15.32,0-4.23-4.25-4.23-11.15,0-15.41Z"/>
          </g>
          <path class="cls-2" d="M35.37,68.33h8.96M22.67,68.33h-8.96"/>
        </g>
      </g>
    </g>
  </g>
</svg>