<?xml version="1.0" encoding="UTF-8"?>
<svg id="Layer_2" data-name="Layer 2" xmlns="http://www.w3.org/2000/svg" viewBox="0 0 183.98 103">
  <defs>
    <style>
      .cls-1 {
        fill: #f9be13;
      }

      .cls-2 {
        fill: none;
        stroke: #1c2856;
        stroke-linecap: round;
        stroke-linejoin: round;
        stroke-width: 3px;
      }
    </style>
  </defs>
  <g id="CONFIRMARE">
    <g id="SUCCES_wide">
      <g id="succes_icon">
        <g>
          <circle class="cls-1" cx="91.48" cy="71.36" r="22.5"/>
          <circle class="cls-1" cx="136.48" cy="71.36" r="17.5"/>
          <circle class="cls-1" cx="171.48" cy="71.36" r="12.5"/>
        </g>
        <g>
          <path class="cls-2" d="M41.39,7.19c.55-1.42,1.92-2.35,3.45-2.35s2.9.94,3.45,2.35l2.43,6.22,6.67.39c1.52.09,2.83,1.1,3.3,2.55.47,1.45,0,3.04-1.17,4.01l-5.16,4.23,1.69,6.46c.39,1.47-.17,3.04-1.41,3.93s-2.89.95-4.17.12l-5.62-3.6-5.62,3.6c-1.28.82-2.94.78-4.17-.12-1.24-.9-1.79-2.46-1.41-3.93l1.69-6.46-5.16-4.23c-1.18-.97-1.65-2.56-1.18-4.01s1.78-2.46,3.3-2.55l6.67-.39,2.43-6.22Z"/>
          <line class="cls-2" x1="1.5" y1="21.5" x2="14.83" y2="21.5"/>
          <line class="cls-2" x1="74.83" y1="21.5" x2="88.17" y2="21.5"/>
          <line class="cls-2" x1="70.82" y1="6.5" x2="79.48" y2="1.5"/>
          <line class="cls-2" x1="10.19" y1="1.5" x2="18.85" y2="6.5"/>
          <circle class="cls-2" cx="44.83" cy="63.69" r="12.19"/>
          <path class="cls-2" d="M18.17,64.84c14.73,14.73,38.6,14.73,53.33,0h0v-20c0-3.68,2.99-6.67,6.67-6.67s6.67,2.99,6.67,6.67v20c0,3.54-1.4,6.93-3.9,9.43-5.82,5.82-16.1,16.1-16.1,16.1v11.14H24.83v-11.14s-10.28-10.28-16.1-16.1c-2.5-2.5-3.9-5.89-3.9-9.42v-20c0-3.68,2.99-6.67,6.67-6.67s6.67,2.99,6.67,6.67v20s0,0,0,0Z"/>
        </g>
      </g>
    </g>
  </g>
</svg>