<?xml version="1.0" encoding="UTF-8"?>
<svg id="Layer_2" data-name="Layer 2" xmlns="http://www.w3.org/2000/svg" viewBox="0 0 64.36 96">
  <defs>
    <style>
      .cls-1 {
        fill: #c6386c;
      }

      .cls-2 {
        stroke-linecap: round;
      }

      .cls-2, .cls-3 {
        fill: none;
        stroke: #fff;
        stroke-linejoin: round;
        stroke-width: 2px;
      }

      .cls-4 {
        fill: #fff;
      }
    </style>
  </defs>
  <g id="STAGE-1">
    <circle class="cls-1" cx="32.18" cy="73.5" r="22.5"/>
    <path id="path1728" class="cls-3" d="M29.49,32.89l11.34-6.58c1.68-.97,1.68-3.41,0-4.38l-11.34-6.58c-1.68-.97-3.78.24-3.78,2.19v13.16c0,1.95,2.1,3.17,3.78,2.19Z"/>
    <path id="path1732" class="cls-2" d="M63.36,39.31c0,4.38-3.55,7.93-7.93,7.93H8.93c-4.38,0-7.93-3.55-7.93-7.93V8.93C1,4.55,4.55,1,8.93,1h46.5c4.38,0,7.93,3.55,7.93,7.93v17.04"/>
    <path id="path1736" class="cls-2" d="M16.19,60.58H1"/>
    <path id="path1740" class="cls-2" d="M63.36,60.58H29.4"/>
    <g id="custom">
      <path id="path1744" class="cls-4" d="M10.91,60.72c0-2.92,2.37-5.28,5.28-5.28s5.28,2.37,5.28,5.28-2.37,5.28-5.28,5.28-5.28-2.37-5.28-5.28"/>
    </g>
  </g>
</svg>