<?xml version="1.0" encoding="UTF-8"?>
<svg id="Layer_2" data-name="Layer 2" xmlns="http://www.w3.org/2000/svg" viewBox="0 0 20 20">
  <defs>
    <style>
      .cls-1 {
        fill: #fafbfb;
      }
    </style>
  </defs>
  <g id="PANEL">
    <g id="FAQ_wide">
      <g id="ACTION_button">
        <g id="whatsapp_icon">
          <path class="cls-1" d="M10,0C4.49,0,0,4.49,0,10c0,1.94.56,3.81,1.61,5.43L.05,19.07c-.11.25-.05.54.14.73.13.13.3.2.47.2.09,0,.18-.02.26-.05l3.64-1.56c1.62,1.06,3.49,1.61,5.43,1.61,5.51,0,10-4.49,10-10S15.51,0,10,0ZM15.13,13.58s-.83,1.07-1.43,1.32c-1.53.63-3.68,0-6.14-2.46-2.46-2.46-3.09-4.61-2.46-6.14.25-.6,1.32-1.43,1.32-1.43.29-.23.74-.2,1,.06l1.21,1.21c.26.26.26.68,0,.94l-.76.76s-.31.92,1.54,2.76c1.84,1.84,2.76,1.54,2.76,1.54l.76-.76c.26-.26.68-.26.94,0l1.21,1.21c.26.26.29.71.06,1Z"/>
        </g>
      </g>
    </g>
  </g>
</svg>